<?xml version="1.0" encoding="utf-8"?>
<!-- Generator: Adobe Illustrator 28.6.0, SVG Export Plug-In . SVG Version: 9.03 Build 54939)  -->
<svg version="1.0" id="Layer_1" xmlns="http://www.w3.org/2000/svg" xmlns:xlink="http://www.w3.org/1999/xlink" x="0px" y="0px"
	 viewBox="0 0 140.2 86.9" enable-background="new 0 0 140.2 86.9" xml:space="preserve">
<path fill-rule="evenodd" clip-rule="evenodd" fill="#20BCBA" d="M131.1,31.3c0,0.9,0,1.7,0,2.6c-0.1,1.2-0.4,2.2-0.5,3.4
	c-0.1,1.2-0.4,2.3-0.6,3.5c-0.2,1.1-0.3,2.4-0.5,3.5c-0.1,0.7-0.5,1.4-0.8,2.1c-0.3,0.5-0.9,1.2-1.6,1c-0.3-0.1-0.6-0.2-0.9-0.4
	c-0.1,0-0.1-0.1-0.2-0.2c-0.5,0.2-0.4,0.7-0.7,1c-0.3,0.3-0.7,0.4-0.6,0.9c-0.3,0.3-0.6,0.6-0.9,0.9c-0.3,0.3-0.6,0.5-0.6,0.6
	c-0.3,0.6-0.5,1-0.8,1.5c0,0.6,0,1.4,0,2.1c-0.2,0.2-0.3,0.4-0.4,0.5c-0.2,0-0.3,0-0.5,0c0,0-0.1,0-0.1,0c-0.3-0.3-0.5-0.5-0.8-0.8
	c-0.1,0.1-0.3,0.2-0.4,0.4c0,0.6,0,1.3,0,2.1c0,0.1,0.1,0.2,0.2,0.3c0,1.1,1,1.9,1,3c0,1.3,0.1,2.6,0,3.9c-0.1,1.1-0.7,2.7-0.4,3.7
	c0.2,0.7,0.9,0.9,1.1,1.5c0.5,1.1-0.3,2.1-1,2.9c-0.2,0.2-0.4,0.4-0.6,0.5c0,0.3,0,0.6,0,0.8c0.1,0.3,0.4,0.5,0.6,0.7
	c0.3,0.3,0.5,0.6,0.8,0.8c0.2,0.2,0.6,0.2,0.8,0.5c0.2,0.3,0.5,0.4,0.7,0.8c-0.1,0.1-0.2,0.3-0.3,0.4c0,0.2,0,0.5,0,0.8
	c-0.1,0.1-0.1,0.2-0.2,0.2c-2.1,0-4.1,0-6.3,0c-0.1-0.1-0.2-0.2-0.4-0.4c-0.1-0.6,0-1.2-0.1-1.8c-0.3-0.2-0.6-0.2-0.9,0.1
	c-0.2,0.2-0.5,0.1-0.7,0.4c-0.3,0-0.6,0-0.9,0c-0.1-0.1-0.1-0.1-0.3-0.3c-0.4,0-0.8,0-1.2,0c0-0.2-0.1-0.3-0.1-0.4
	c0.7-0.7,1.4-1.4,2.1-2c0.2-0.2,0.5-0.5,0.7-0.7c0.2-0.2,0.3-0.5,0.4-0.8c0-0.4,0-0.8,0-1.3c0.1-0.1,0.2-0.2,0.3-0.3
	c0-1.3-2.3-2.1-3.2-3c-1-0.8-2.2-1.2-3.1-2c-1-0.8-1.2-2.1-1.8-3.1c-0.6-1.3-1.2-1.8-1.1-3.3c0.1-1.4,0.2-2.5,0.5-3.8
	c0.2-1.1,0.6-2.1,0.7-3.2c0-0.6-0.2-1.6,0.1-2.2c0.2-0.3,0.6-0.5,0.7-0.8c0.3-0.7,0.4-2,0.1-2.7c-0.4-1.1-1.2-2-2.1-2.6
	c-0.6-0.3-1.1-0.3-1.7-0.5c-0.6-0.2-0.9-0.7-1.4-1.1c-0.8-0.6-2.2-1.4-3.2-0.9c-1,0.5-1.5,1.9-2.5,2.5c-0.8,0.5-1.4,0.1-2.3-0.2
	c-2.1-0.5-2.8,1.2-4.3,2.3c-0.7,0.5-1.9,0.4-2.7,0.6c-0.7,0.1-2,0.3-2.5,0.7c-0.8,0.5-0.2,0.8-0.2,1.4c0,0.3,0,0.6,0,0.9
	c-0.4,0.7-1.3,0.9-2,1.3c-0.2-0.1-0.4-0.2-0.6-0.3c-0.2-0.1-0.4-0.2-0.6-0.3c-0.3,0.2-0.5,0.4-0.8,0.6c-0.2,0.1-0.4,0.2-0.6,0.3
	c0,0-0.1,0-0.1,0c-0.1,0-0.2,0-0.3,0c-0.1-0.1-0.2-0.2-0.3-0.3c-0.1,0.1-0.1,0.1-0.2,0.3c-0.4,0-0.8,0-1.1,0c-0.4-0.2-0.6-0.3-1-0.5
	c-0.3,0-0.6,0-1.1,0c-0.1,0.1-0.3,0.4-0.5,0.5c-0.2,0.1-0.4,0.1-0.6,0.3c-0.3,0-20.4,1.6-20.5,1.7c-0.2,0-0.4,0-0.6,0
	c-0.1-0.1-0.2-0.2-0.3-0.3c-0.2,0-0.4,0-0.5,0c-0.4-0.4-0.8-0.7-1.1-1c0-0.5,0-1,0-1.3c0.2-0.3,0.2-0.5,0.4-0.8c0.1,0,0.2,0,0.4-0.1
	c0.1-0.1,0.2-0.2,0.3-0.3c0.9,0,20.9-1.4,21.9-1.4c0.1,0.1,0.1,0.1,0.2,0.2c0.3,0.1,0.6,0.1,1,0.1c0.2-0.2,0.3-0.3,0.5-0.5
	c0.2-0.1,0.5,0,0.8-0.2c0.5-0.3,1-0.6,1.6-0.7c0.2-0.5,0.7-0.2,1-0.4c0.2-0.2,0.5-0.4,0.8-0.4c2.8-0.9,5.1-3,8-4
	c1.2-0.4,2.2-0.7,3.2-1.6c0.9-0.8,1.6-1.8,2.4-2.7c0.6-0.7,1.2-1.2,1.9-1.7c0.3-0.2,3.3-2.1,2.5-2.7c-0.3-0.2-0.6-0.5-0.9-0.7
	c0,0,0.1-0.1,0.1-0.1c-0.2-0.4-0.4-0.7-0.6-1.2c0-0.3,0-0.8,0-1.2c-0.2-0.4-0.4-0.7-0.6-1.1c0-0.2,0-0.5,0-0.8
	c-0.2-0.3-0.5-0.1-0.8-0.2c-0.3-0.3,0.1-0.5,0.2-0.7c0-0.2,0-0.5,0-0.7c0.1-0.2,0.2-0.4,0.3-0.6c0.1-0.2,0.3-0.4,0.3-0.7
	c0-0.2,0.2-0.4,0.3-0.6c-0.2-0.3-0.4-0.7-0.6-1.1c0-0.3,0-0.7,0-1.1c0.1-0.1,0.2-0.2,0.3-0.3c0-0.2,0-0.4,0.3-0.4
	c0.4,0,0.5-0.5,0.8-0.6c0.3,0,0.5-0.3,0.7-0.5c0-0.1,0-0.2,0-0.3c0.3-0.1,0.5-0.3,0.8-0.4c0,0.2,0.1,0.3,0.1,0.5
	c0.1,0,0.2,0,0.4,0.1c0.2,0.1,0.2,0.3,0.5,0.3c0.2,0,0.2,0.1,0.3,0.2c0.1,0.1,0.2,0.2,0.3,0.3c0.2,0,0.5,0,0.9,0
	c0,0,0.1-0.1,0.3-0.2c0.3,0,0.7,0,1.1,0c0.5,0.4,1.3,0.5,1.7,1.1c0.4,0,0.8,0,1.2,0c0.1,0.3,0.3,0.5,0.4,0.8c0,0.3,0,0.7,0,1.1
	c0.2,0.2,0.4,0.3,0.5,0.5c0.1,0.1,0.1,0.3,0.2,0.5c0.2,0,0.3,0.1,0.5,0.1c0,0.2,0,0.4,0,0.6c0.1,0.1,0.2,0.2,0.4,0.4
	c0.5,0,1-0.1,1.3,0.2c0.3,0.2,0.3,0.9,0.9,1c0.5,0.1,0.9-0.4,1.5-0.4c0.5,0,1,0.4,1.5,0.4c0.5,0.1,1,0,1.5,0.1
	c1.2,0.3,2.4,0.8,3.5,1.1c0.4,0.1,3.5,0.9,2.2-0.4c-0.2-0.2-0.2-0.5-0.4-0.7c-0.3-0.2,0.3-2.3,0.3-2.6c0.3-1,0.7-2.1,1.3-3
	c1.1-1.7,3.6-3,5.2-1.1c0.7,0.8,0.9,1.8,1.3,2.7c0.6,1.3,1.3,2.3,1.6,3.7C130.7,27.5,131,29.4,131.1,31.3z M118.5,33.2
	c0.1,0.2,0.2,0.3,0.3,0.4c0.1,0.1,0.2,0.1,0.4,0.2c0.7,0.3,1.2,0.7,1.5,1.2c0.2,0.3,0.5,0.7,0.5,1.1c0,0.1,0,0.2,0.1,0.3
	c0.1,0.1,0.3,0.2,0.4,0.3c0.2,0,0.4,0,0.6,0c0.4,0.4,0.7,0.8,1.1,1.1c0.1,0,0.2,0,0.3,0c0,0,0.1-0.1,0.1-0.1c0-0.6,0-1.2,0-1.8
	c-0.1-0.1-0.2-0.2-0.2-0.2c0-0.7,0-1.3,0-2c-0.1-0.1-0.2-0.2-0.3-0.3c0-0.4,0-0.8,0-1.2c0,0-0.1-0.1-0.1-0.1
	c-0.3-0.1-0.6-0.1-0.9,0.3c-0.9,0-1.8,0-2.6,0c-0.2,0.2-0.4,0.4-0.5,0.6c-0.1,0-0.2,0-0.3,0C118.7,33,118.6,33,118.5,33.2z
	 M112.5,59.6c0.9,0.3,1.2,1.1,1.9,1.6c0.2,0,0.5,0.1,0.7-0.1c0-0.3,0-0.6,0-0.9c0.1-0.1,0.2-0.2,0.3-0.3c0-0.3,0-0.6,0-0.9
	c-0.1-0.1-0.3-0.3-0.4-0.4c-0.3,0-0.6,0-0.8,0c-0.4-0.2-0.7-0.4-1-0.6c-0.2,0.2-0.5,0.5-0.7,0.7C112.5,59,112.5,59.3,112.5,59.6z"/>
<path fill-rule="evenodd" clip-rule="evenodd" fill="#EF3B4F" d="M37,17.1c0.5,0.9,0.9,1.7,1.3,2.6c0,0.2,0,0.4,0,0.8
	c-0.1,0.2-0.4,0.3-0.3,0.6c-0.4,0.3-0.7,0.8-1.2,1c-0.4,0.2-0.8,0.4-1.2,0.6c-0.5,0.2-1,0.5-1.4,0.8c-0.2,0.2-0.5,0.1-0.7,0.1
	c-0.1,0.1-0.2,0.2-0.3,0.3c-0.4,0-0.8,0-1.2,0c-0.2,0.4-0.5,0.8-0.4,1.3c-0.9,1-0.2,2.9-1.1,4c-0.7,1,1.8,3.8,1.9,4.8
	c0.1,1.4,1.9,2.2,2.3,3.5c0.2,0.5,0.4,1.5,0.6,1.9c0.7,1.8,0.4,3.1,0.5,4.9c0.1,0.7,0.6,1.3,0.4,1.9c0.3,0.6,0.6,1.2,0.9,1.8
	c0.1,0.1,0,0.3,0,0.4c-0.1,0.1-0.2,0.2-0.3,0.3c0,0.7,0,1.4,0,2c0.1,0.1,0.1,0.1,0.2,0.2c0,0.4,0.2,0.8-0.2,1.2
	c-0.1,0.1-0.1,0.4-0.1,0.7c-0.4,0.2-0.8,0-1.1,0.1c-0.3,0-0.7,0-1,0c-0.3,0.3-0.1,0.7-0.1,1c0,0.3,0,0.6,0,0.9
	c0.1,0.1,0.2,0.2,0.3,0.3c0,0.3,0,0.6,0,0.8c0.1,0.1,0.1,0.1,0.3,0.3c0.2,0.3-0.1,0.8,0.1,1.3c0.4,0.2,0.6,0.9,1.3,1
	c0.4,0.4,0.8,0.7,1.1,1.1c0.8,0.9,1.4,1.7,2.4,2.4c0,0.4,1.4,2.4,1.7,2.6c0.9,0.6,1.7,2,2.5,2.8c0.6,1.1,1.8,1.9,2.2,3
	c0.1,0.4,0.6,0.6,0.9,1c0.1,0,0.3,0,0.5,0c0.9,0.9,1.8,1.8,2.6,2.6c0.2,0,0.3,0,0.5,0c0.3,0.4,0,0.8,0.2,1.3
	c-0.4,0.4-0.8,0.8-1.2,1.2c-0.4,0.3-0.7,0.8-1.2,1c-0.5,0.3-0.9,0.7-1.3,1.1c-0.1,0-0.2,0-0.2,0c-0.4,0.4-0.8,0.8-1.1,1.1
	c-0.6,0-0.8,0.6-1.2,0.9c-0.8,0-1.6,0-2.3,0c-0.1-0.1-0.1-0.1-0.2-0.2c-0.2,0-0.4,0-0.7-0.1c-0.1-0.1-0.1-0.1-0.2-0.2
	c-0.9,0-1.9,0-2.9,0c-0.2-0.2-0.4-0.5-0.7-0.9c0-0.2,0-0.6,0-1.1c0.2-0.1,0.5-0.3,0.9-0.6c0.3,0.1,0.7-0.5,1.2-0.4
	c0.1,0.1,0.2,0.2,0.3,0.3c0.5-0.4,0.6-1,0.7-1.6c0.3-0.3,0.7-0.5,0.9-0.7c0-1,0-1.9,0-2.7c-0.1-0.1-0.3-0.3-0.4-0.4
	c-0.1,0-0.2,0-0.3,0c-0.1-0.2-0.1-0.3-0.2-0.5c-0.7-0.7-1.4-1.3-2-2.1c-1.1-1.2-2.8-2.1-3.6-3.5c-0.2-0.1-0.6,0-1,0
	c-0.3,0-0.7,0-1,0c-0.2,0.2-0.5,0.5-0.7,0.7c0.1,0.3-0.3,0.5-0.3,0.7c0,0.3-0.3,0.5-0.3,0.9c0,0.2-0.2,0.5-0.4,0.8
	c-0.4,0.4-0.9,0.9-1.5,1.5c-0.4,0-0.8,0-1.2,0c-0.3-0.3-0.8-0.3-1-0.7c0-0.1,0-0.3,0-0.4c0.2-0.5,0.5-1.1,0.8-1.7c0-1,0-2.1,0-3.4
	c0,0-0.1-0.1-0.3-0.3c0-0.2,0-0.6,0-0.9c-0.6-0.2-0.9-0.5-1.2-1c-0.2-0.5-8-4-10.1-3.4c-0.1,0,0,0.2-0.1,0.4c0,0,0,0.1-0.1,0.1
	c-0.5,0-1,0-1.5,0c-0.1,0-0.2-0.1-0.3-0.2c-0.3,0-0.6,0-0.8,0c-0.1-0.1-0.2-0.2-0.3-0.3c-0.2,0-0.4,0-0.6,0
	c-0.1-0.1-0.2-0.2-0.3-0.3c-0.2,0-0.3,0.1-0.4,0c-0.5-0.4-1.2-0.4-1.7-1c0-0.4,0-0.8,0-1.2c-0.6-0.3-0.6-0.3-1.2-1.1
	c0,0,0-0.1,0-0.1c0-0.7,0-1.4,0-2.2c0.1-0.2,0.4-0.3,0.3-0.6c0.3-0.3,0.7-0.5,0.8-0.8c0.1-0.4,0.5-0.6,0.6-0.9
	c0.1-0.4,0.3-0.5,0.5-0.8c0.3-0.3,0.7-0.5,0.7-1c0.3-0.3,0.5-0.6,0.7-1c0.1-0.3,0.2-0.6,0.5-0.8c0.5-0.4,0.9-0.9,1.3-1.3
	c0.3-0.3,0.6-0.5,0.6-0.9c0-0.1,0.3-0.4,0.4-0.4c0.4,0,0.6-0.3,0.8-0.5c0.3-0.3,0.6-0.6,0.9-0.9c0.4,0.2,0.5-0.4,0.9-0.3
	c0.1,0,0.3-0.2,0.4-0.4c0-0.1,0-0.2,0-0.3c0.4-0.4,0.8-0.7,1.1-1.1c0-0.4,0-0.8,0-1.3c-0.1-0.1-0.3-0.2-0.5-0.4
	c-0.4,0.2-0.8,0.3-1.2,0.6c-0.3,0.3-0.8,0.3-1,0.7c-0.4,0.1-0.6,0.5-0.9,0.6c-0.3,0.1-0.6,0.5-1,0.4c-0.1,0-0.3,0.1-0.6,0.3
	c-0.2,0-0.5,0-0.8,0c-0.1,0.1-0.2,0.3-0.4,0.5c-0.1,0.2,0.2,0.6-0.3,0.8c0,0.5,0,1,0,1.5c-0.3,0.4-0.5,0.9-0.9,1.3
	c-0.1,0.6-0.7,0.7-0.9,1.2c-0.5,0-0.9,0-1.3,0c0-0.1-0.1-0.3-0.1-0.4c-0.1,0-0.3-0.1-0.5-0.2c-0.3-0.2-0.5-0.5-0.7-0.7
	c0.1-0.2,0.2-0.3,0.3-0.6c0-0.2,0-0.5,0-0.8c0.1-0.1,0.2-0.2,0.3-0.3c0-0.3,0-0.6,0-0.9c-0.3-0.5-0.9-0.6-1.4-0.8c0-0.3,0-0.5,0-0.8
	c0.3-0.3,0.7-0.7,1.1-1.1c0.6-0.1,1.2-0.5,2-0.9c0.1,0,0.3,0,0.5,0c0.1-0.1,0.2-0.2,0.3-0.3c0.4-0.4,0.9-0.8,1.2-1.4
	c0.1-0.3,0.4-0.5,0.7-0.6c0.3-0.1,0.5-0.4,0.8-0.6c0.3-0.2,0.5-0.4,0.8-0.5c0.1,0,0.2,0,0.4,0c0.2-0.2,0.5-0.5,0.8-0.8
	c0.3-0.3,0.4-0.6,0.6-0.9c0.2-0.3,0.4-0.6,0.6-0.9c0.2-0.3-0.1-0.8,0.4-1c0-1,0-1.9,0-2.9c0.1-0.1,0.2-0.2,0.3-0.3
	c0-0.6,0-1.1,0-1.7C19.1,27,19.1,27,19,26.9c0-0.3,0-0.6,0-0.9c-0.1-0.1-0.2-0.2-0.3-0.3c0-0.6,0-1.3,0-2c0.1-0.1,0.1-0.4,0.3-0.5
	c0.1-0.2,0.3-0.4,0.6-0.5c0.2-0.1,0.4-0.3,0.5-0.4c0-0.3,0-0.6,0-0.9c0.1-0.1,0.1-0.1,0.2-0.2c0.1-0.6,1-2.5,1.5-3.3
	c0-0.5,0-1,0-1.4c0.1-0.1,0.1-0.1,0.3-0.3c0-0.3,0-0.6,0-0.9c0.1-0.1,0.1-0.1,0.3-0.3c0-0.8,0-1.6,0-2.3c0.4-0.2,0.3-0.5,0.3-0.9
	c0.4-0.2,0.6-0.6,0.8-1.1c0.2-0.4,0.5-0.8,0.4-1.3c0.3-0.3,0.6-0.6,0.7-1C25,8.2,25,7.6,25.4,7.3c0.3-0.3,0.6-0.6,0.8-0.9
	c1,0,2,0,3,0c0.1,0.1,0.1,0.1,0.2,0.2c0.2,0,0.5,0,0.7,0c0.1,0.1,0.2,0.1,0.3,0.2C30.9,7.1,31,7.6,31.3,8c0.3,0.3,0.6,0.6,0.9,0.9
	c0,0.7,0,1.3,0,2c-0.1,0.1-0.2,0.2-0.3,0.3c0.1,0.1,0.1,0.1,0.2,0.2c0,0.2,0,0.4,0.1,0.6c0.2,0.2,0.6,0.1,0.7,0.4
	c0.2,0.7,0.8,1,1.2,1.5c0.3,0.3,0.5,0.6,0.8,0.8c0.4,0.2,0.3,0.7,0.6,0.9c0.2,0.2,0.5,0.5,0.7,0.7C36.6,16.7,36.9,17,37,17.1
	C37.5,18.1,36.9,17,37,17.1C37.5,18.1,36.9,17,37,17.1z M27.3,55.6c-0.1-0.1-0.1-0.2-0.2-0.3c-0.2-0.5-0.5-0.9-0.7-1.4
	c-0.2-0.8-0.6-1.5-1-2c-0.3,0-0.6,0-0.9,0c-0.1,0.1-0.2,0.2-0.3,0.3c-0.3,0-0.6,0-0.9,0c-0.1-0.1-0.1-0.2-0.2-0.2
	c-0.3-0.1-0.7,0-1-0.3c-0.1-0.1-0.4,0-0.6,0c0,0-0.1,0-0.1,0c0,0-0.1,0-0.1,0c-0.1,0.1-0.1,0.1-0.2,0.2c-0.1-0.1-0.2-0.2-0.3-0.3
	c-0.4,0-0.8,0-1,0c-0.5,0.2-0.7,0.4-0.9,0.5c0.1,0.2,0.2,0.4,0.2,0.4c0.3-0.1,0.5,0.4,0.7,0.3c0.4-0.1,0.6,0.3,0.9,0.3
	c0.2,0,0.3,0.2,0.5,0.3c0.3,0,0.6,0,0.8,0.3c0.3-0.1,0.5,0.3,0.7,0.3c0.2,0,0.3,0,0.5,0c0.2,0.2,0.4,0.4,0.6,0.6c0.2,0,0.4,0,0.7,0
	c0.1,0.2,0.3,0.4,0.4,0.6c1,0,1.6,0.7,2.3,0.9C27.2,55.8,27.2,55.7,27.3,55.6z"/>
</svg>
