<?xml version="1.0" encoding="utf-8"?>
<!-- Generator: Adobe Illustrator 28.6.0, SVG Export Plug-In . SVG Version: 9.03 Build 54939)  -->
<svg version="1.0" id="Layer_1" xmlns="http://www.w3.org/2000/svg" xmlns:xlink="http://www.w3.org/1999/xlink" x="0px" y="0px"
	 viewBox="0 0 187.7 80.3" enable-background="new 0 0 187.7 80.3" xml:space="preserve">
<path fill-rule="evenodd" clip-rule="evenodd" fill="#20BCBA" d="M128.4,16.1c-0.7-0.2-1-0.8-1.5-1.3c-0.2-0.1-0.1-0.4-0.3-0.6
	c-0.2-0.1-0.4-0.3-0.5-0.4c0-0.3,0-0.5,0-0.8c-0.1-0.1-0.1-0.1-0.2-0.2c-0.3-0.4,0.2-0.7,0.2-1c0.1-0.2,0.3-0.4,0.5-0.5
	c0.5-0.1,0.7-0.5,1-0.8c0.1,0,0.3,0,0.5,0c0.1-0.1,0.2-0.2,0.3-0.2c0.2,0,0.3,0,0.4,0c0.2,0.1,0.4,0.2,0.6,0.3
	c0.7,0.7,1.6,1.6,2.4,2.4c-0.1,0.4,0.2,0.7,0.3,1c0.1,0.3,12.2,13.9,12.4,14.1c0.1,0.1,0.1,0.2,0.1,0.3c0.3,0.1,0.5,0,0.8,0.1
	c0.2,0,0.5,0,0.7,0c0.8,1,2.5,1.2,3.7,1.3c0.9,0.1,1.7,0.3,2.6,0.5c1.4,0.3,2.9,0.4,4.3,0c1.4-0.3,1.3-1.6,1.5-2.8
	c0.2-0.9,1-4.4-0.7-4.4c-0.5,0-0.9,0-1.5,0c-0.1-0.2-0.3-0.4-0.5-0.6c-0.2-0.1-0.1-0.4-0.2-0.6c-0.2-0.4-0.5-0.8-0.6-1.3
	c-0.3-0.2-0.3-0.5-0.2-0.7c-0.1-0.1-0.3-0.3-0.4-0.4c0-0.7,0-1.4,0-2.1c-0.2-0.3-0.3-0.5-0.3-0.8c0.1-0.1,0.1-0.2,0.2-0.3
	c0-0.3,0-0.6,0-0.9c-0.7-0.9-0.7-0.9-0.7-1.3c0.3-0.3,0.5-0.5,0.7-0.7c0-0.5,0.2-0.7,0.4-0.8c0.4-0.1,0.7-0.4,1.1-0.5
	c0.1,0,0.2-0.1,0.3-0.2c0.2,0,0.5,0,0.7,0c0.1-0.1,0.1-0.1,0.2-0.2c0.5-0.1,1.1,0,1.7,0c0.1-0.1,0.1-0.1,0.2-0.2c0.4,0,0.9,0,1.4,0
	c0.1,0.1,0.3,0.3,0.6,0.2c0.2,0,0.4,0.2,0.7,0.3c0.2,0.2,0.5,0.5,0.7,0.8c0.2,0.1,0.4,0.2,0.5,0.2c0.1,0.1,0.3,0.1,0.4,0.2
	c0.1,0.2,0.1,0.3,0.3,0.7c0,0.2,0,0.6,0,1c0.1,0.1,0.1,0.2,0.2,0.3c0,0.2,0,0.5,0,0.7c-0.1,0.1-0.1,0.1-0.2,0.2c0,0.5,0,1.1,0,1.7
	c0.1,0.1,0.3,0.3,0.5,0.4c-0.1,0.2-0.2,0.4-0.3,0.6c-0.2,0.4,2.7,1.9,3,2.1c1,0.8,1.4,1.5,1.7,2.6c1.5,0.7,2.2,2.5,2.8,3.9
	c0.7,1.5,0.8,3.5,1.8,4.8c0.8,1.1,1.5,1.1,1.5,2.7c0.7,0.1,1,1.1,1.3,1.6c0.4,0.6,0.8,1.2,1.2,1.8c0.4,0.7,0.4,1.6,0.5,2.5
	c0.1,1.5,0.3,2.7-0.3,4c-0.6,1.3-1,2-2.2,2.8c-1.1,0.7-1.5,1.6-2.2,2.7c-0.7,1.1-0.8,2.3-1.2,3.4c-0.2,0.6-0.7,1.1-1,1.6
	c-0.3,0.7-0.2,1.4-0.4,2.1c-0.2,0-0.4,0-0.5,0.1c-0.2,0.1-0.4,0.4-0.6,0.6c0.3,0.7,1.6,1.1,2.2,1.5c0.9,0.6,1.7,1.4,2.4,2.2
	c1,1.3,1.6,2.8,2.5,4.2c0.4,0.7,1,1.2,1.6,1.7c0.3,0.3,1.4,1.8,1.8,1.8c0.3,0,0.3-0.3,0.6-0.5c0.3,0,0.6,0,0.9,0c0,0,0.1,0,0.1,0.1
	c0.1,0.2,0,0.4-0.2,0.5c0,0.2,0,0.5,0,0.7c0.6,0.4,0.6,1.3,1.2,1.7c0.2,0.1,0.3,0.4,0.4,0.7c0,0.2,0,0.4,0,0.6
	c-0.1,0.4-0.6,0.3-0.8,0.6c-0.2,0.3-0.5,0.5-0.6,0.7c-0.2,0-0.3,0-0.3,0c-0.1,0-0.1,0.1-0.2,0.2c-0.5,0-1.1,0-1.6,0
	c-0.5,0.3-0.9,0.5-1.4,0.7c-1.3,0-2.6,0-4,0c-0.1-0.1-0.1-0.1-0.1-0.2c0,0-0.1-0.1-0.1-0.1c-0.9,0-1.7,0-2.6,0
	c-0.2-0.3-0.7-0.2-0.8-0.6c0.1-0.1,0.2-0.2,0.2-0.3c0-0.1,0-0.1,0-0.2c0.2-0.1,0.4-0.2,0.7-0.3c0.1,0,0.2,0,0.4,0
	c0.1-0.1,0.1-0.1,0.2-0.2c0.3,0,0.6,0,0.9,0c0.1-0.1,0.1-0.1,0.1-0.6c0.2-0.2,0.4-0.3,0.6-0.6c0.1,0,0.2,0,0.4,0
	c0,0,0.8-1.3,0.8-1.4c0.1-0.6-0.3-0.9-0.8-1.3c-1.7-1.6-3.6-3.2-5.2-4.8c-1.1-1.1-2-2.4-3.3-3.4c-2.1-1.5-1.6,2-1.4,3.3
	c0.1,0.6,0.1,1.4,0.1,2c0.1,0.5,0.2,1.2,0.4,1.7c0.1,0.2,0.4,1.2,0.5,1.3c0.1,0.1,0.2,0.3,0.3,0.3c0.3,0.1,0.4-0.1,0.5-0.2
	c0.2,0,0.3,0,0.5,0c0.1,0.3,0,0.7,0.1,1c-0.1,0.1-0.1,0.1-0.2,0.2c0,0.1-0.1,0.1-0.1,0.2c0,0.1,0,0.1,0.5,0.6c0,0.1,0,0.3,0,0.3
	c0.3,0.3,0.5,0.5,0.7,0.7c0,0.3,0,0.5,0,0.6c0.1,0.1,0.2,0.2,0.2,0.3c0,0.4,0,0.8,0,1.2c-0.4,0.3-0.9,0.4-1.2,0.7
	c-0.3,0.3-0.7,0.3-1,0.6c-0.3,0-0.5,0-0.7,0c-0.1,0.1-0.1,0.1-0.2,0.2c-0.2,0-0.5,0-0.7,0c-0.1,0.1-0.2,0.2-0.3,0.2
	c-0.2,0-0.5,0-0.7,0c-0.1,0.1-0.2,0.2-0.3,0.2c-0.2,0-0.3,0-0.5,0c-0.1,0.1-0.2,0.2-0.3,0.2c-0.5,0-0.9,0-1.4,0
	c-0.1,0.1-0.1,0.1-0.2,0.2c-1.2,0-2.4,0-3.4,0c-0.4-0.1-0.7-0.2-1-0.3c-0.3-0.1-0.6-0.2-0.7-0.6c0.1-0.4,0.6-0.6,0.8-0.9
	c0.3-0.1,0.5-0.3,0.7-0.3c0.3,0,0.4-0.2,0.6-0.3c0.1,0,0.2,0,0.2-0.1c0.2-0.3,0.6-0.3,0.8-0.6c0.1-0.1,0.2-0.1,0.2-0.2
	c-0.1-0.3,0.4-0.4,0.3-0.7c0.2-0.2,0.3-0.3,0.5-0.5c0.2-0.2,0.4-0.4,0.6-0.6c0,0,0.1-0.1,0.1-0.1c0-0.1,0-0.2,0-0.2
	c0.1-0.1,0.2-0.2,0.2-0.2c0-0.4,0-0.8,0-1.2c-0.1-0.1-0.1-0.1-0.2-0.2c0-0.3,0-0.7,0-1c0.1-0.1,0.1-0.1,0.2-0.2
	c0.2-0.2-0.7-3.3-0.8-3.7c-0.4-1-0.9-2-1.1-3.1c-0.6-2.2-1.8-4.3-2.8-6.4c-0.6-1.1-1.1-2.2-0.4-3.4c0.6-1.1,1.6-2.1,2.4-3.1
	c0.8-1,1.8-1.8,2.6-2.8c0.7-0.9,2.8-2.6,2.6-3.9c-0.1-0.8-0.9-1.8-1.2-2.6c-0.3-0.8-0.4-2-1.1-2.5c-0.8-0.5-1.4,0.3-2.2,0.4
	c-0.5,0.1-1.7,0.2-2.1,0.5c-0.3,0.2-0.2,0.3-0.3,0.5c0,0.1,0.2,0.3,0.2,0.4c0,0.1-0.2,0.2-0.2,0.3c0,0.2-0.1,0.3-0.2,0.4
	c-0.1,0.1-0.3,0.3-0.4,0.4c-0.5,0-1,0-1.5,0c-0.1-0.1-0.3-0.3-0.3-0.5c0-0.2-0.1-0.3-0.3-0.4c-0.5-0.2-0.8-0.6-1.2-0.9
	c0-0.1,0-0.2,0-0.2c-0.1-0.2-0.3-0.3-0.5-0.5c0.1-0.1,0.2-0.2,0.2-0.2c0-0.8-1.7-1.8-2.3-2.5c-0.6-0.7-1.5-1.1-2.2-1.8
	c-0.1-0.1-1.2-1.6-1.3-1.3c-0.1,0.3-0.4,0.2-0.7,0.2c-0.1-0.1-0.3-0.4-0.5-0.4c-0.3-0.1-0.4-0.2-0.6-0.4c0-0.1,0-0.3,0-0.5
	c-0.3-0.2-0.6-0.5-1-0.9c-0.2,0-0.5-0.4-1-0.5c-0.1,0-0.1-0.1-0.2-0.2c-0.3-0.2-0.3-0.6-0.6-0.8c-0.3-0.2-0.5-0.4-0.7-0.7
	C139.6,28.3,128.9,16.6,128.4,16.1z M152.2,36.8c0.9,0,1.8,0,2.6,0c0.6-0.3,1.1-0.6,1.6-0.8c0-0.1,0-0.2,0-0.2
	c-0.1-0.1-0.2-0.2-0.3-0.3c-0.4-0.1-0.8,0-1.2,0c-0.1-0.1-0.2-0.2-0.2-0.2c-0.2,0-0.5,0-0.7,0c-0.1-0.1-0.2-0.2-0.3-0.2
	c-0.2,0-0.3,0-0.5,0c-0.1-0.1-0.2-0.2-0.3-0.2c-0.1,0-0.3,0-0.4,0c-0.2-0.1-0.5-0.2-0.7-0.4c-0.2-0.2-0.6,0-0.7-0.2
	c-0.6-0.3-1.3-0.6-1.9-0.9c-0.2-0.1-0.4,0-0.7-0.1c-0.3-0.3-0.6-0.5-1-0.6c0,0.2,0,0.4,0,0.6c1.1,1.1,2.1,2.1,3.2,3.2
	c0.3,0.3,0.4,0.6,0.6,1c0.1,0.2,0.2,0.2,0.4,0.2C151.9,37.2,152.1,37,152.2,36.8z M161.8,55.4c-0.3,0.3-0.5,0.5-0.7,0.7
	c0.1,0.1,0.2,0.2,0.3,0.3c0.1,0.1,0.1,0.3,0.4,0.2C161.8,56.3,161.8,56,161.8,55.4z"/>
<path fill-rule="evenodd" clip-rule="evenodd" fill="#EF3B4F" d="M42.3,66.6c-0.2-1.2-2-5.2-2.7-6.1c-0.9-1-1.5-2.8-1.6-4.2
	c0-1.4-0.1-2.3-1.3-3.4c-0.9-0.8-1.8-1.4-2.6-2.3c-1-1-2-2.5-3.3-3c-1.5-0.6-2,1.7-3,2.6c-0.8,0.8-1.6,1.5-2.2,2.4
	c-0.7,0.9-1.4,1.5-2.4,2.2c-0.9,0.6-1.7,1.5-2.6,2.1c-2,1.3-3.4,2.9-5.1,4.5c-1,0.9-1.9,1.7-2.6,2.8c-0.6,1-1,2.2-1.5,3.3
	c0.4,0.4,0.2,1.3,0.2,1.9c0,0,0.1,0.1,0.1,0.1c0,0,0.1,0.1,0.1,0.1c0.1,0.3,0,0.6,0.3,0.8c0,0.4,0,0.7,0,1.1c0.3,0.3,0.7,0.6,1,0.9
	c-0.1,0.4,0.1,0.4,0.2,0.6c0,0.2,0,0.3,0,0.5c-0.1,0.1-0.2,0.3-0.3,0.4c-0.2,0-0.3,0-0.5,0c-0.1,0.1-0.1,0.1-0.2,0.2
	c-0.2,0.2-0.6-0.1-0.7,0.3c-0.4,0-0.8,0-1.2,0c-0.1,0.1-0.2,0.1-0.3,0.2c-0.3,0-0.7,0-1.2,0c-0.1-0.1-0.2-0.2-0.3-0.2
	c-0.2,0-0.3-0.4-0.6-0.3c-0.2-0.3-0.6-0.4-0.9-0.7c-0.1-0.1-0.1-0.2-0.2-0.3c-0.1-0.2-0.2-0.5-0.3-0.7c-0.2-0.2-0.2-0.5-0.4-0.7
	c-0.2-0.2-0.3-0.4-0.4-0.7c0-0.1,0-0.3,0-0.4c-0.5-0.3-0.5-0.9-0.9-1.4c0-0.5,0-1.1,0-1.6c0.1-0.2,0.3-0.4,0.6-0.4
	c0.1-0.2,0.3-0.2,0.5-0.3c0.2-0.1,0.3-0.3,0.4-0.4c0.8-0.8,1.7-1,2.4-1.7c0.9-0.8,1.5-2.4,2-3.5c0.6-1.2,0.9-2.7,1.6-3.8
	c0.6-0.9,1.6-1.6,2.4-2.3c1-0.9,2.1-1.3,2.8-2.5c0.8-1.2,1.5-2.2,1.8-3.6c0.3-1,0.8-1.9,1.1-2.9c0.3-0.8,0.2-1.5,0.3-2.3
	c0.3-1.6,0.5-3.2,1.4-4.5c0.6-0.8,1.8-1.3,2.6-1.7c1-0.6,1.4-1.3,2.1-2c0-0.1-0.1-0.2-0.2-0.4c0-0.1,0-0.4,0-0.6
	c0.1-0.2,0.3-0.5,0.5-0.8c0-0.1,0-0.2,0-0.4c0.1-0.1,0.2-0.2,0.2-0.3c0-0.5,0-0.9,0-1.4c0.5-0.5,0.5-0.5,0.7-1.2
	c0.1-0.3,0.2-0.7,0.5-0.9c0.2-0.2,0.2-0.5,0.4-0.7c0.3-0.2,0.2-0.5,0.4-0.7c0.2-0.2,0.1-0.4,0.1-0.6c0.2-0.2,0.5-0.4,0.7-0.6
	c0-0.3,0-0.4,0-0.6c0.1-0.1,0.1-0.1,0.2-0.2c0.1-0.2,0-0.5,0.1-0.7c0.1-0.2,0.2-0.5,0.3-0.7c0-0.3,0.2-0.6,0.4-0.7
	c0.2-0.2,0.2-0.5,0.4-0.7c0.2-0.2,0.4-0.4,0.5-0.5c0.5-0.5-1.1-1.1-1.4-1c-0.6,0.1-1.5,1.3-2,1.8c-0.9,0.8-1.6,2-2.6,2.7
	c-0.1-0.1-0.2-0.2-0.3-0.3c0-0.2,0-0.4-0.1-0.6c-0.1,0.1-0.2,0.2-0.4,0.3c-0.1-0.1-0.2-0.1-0.5-0.2c-0.1,0.2-0.2,0.4-0.3,0.7
	c0,0-0.1-0.1-0.1-0.1c0,0.1-0.1,0.3-0.1,0.4c-0.2,0-0.3,0-0.5,0c-0.2-0.2,0.1-0.2,0.1-0.4c0-0.4,0-0.7,0-1.1
	c0.1-0.1,0.2-0.2,0.2-0.3c0-0.2,0-0.5,0-0.7c-0.2-0.2-0.4-0.5-0.7-0.6c-0.3,0-0.4,0.4-0.7,0.5c-0.1,0-0.2,0-0.4,0
	c-0.4,0.1-0.5,0.6-0.9,0.7c-0.1,0-0.1,0-0.2-0.1c0,0,0-0.1,0-0.1c0.2-0.3,0.7-0.4,0.7-0.9c0.2-0.3,0.5-0.5,0.7-0.7
	c0-0.3,0-0.5,0-0.7c-0.1-0.1-0.3-0.1-0.4,0c-0.5,0.3-1.1,0.4-1.3,0.9c-0.2,0-0.2-0.1-0.3-0.1c-0.1-0.3-0.1-0.5,0-0.8
	c0.1,0,0.3-0.1,0.4-0.1c0.2-0.3,0-0.5-0.1-0.8c0.1-0.1,0.1-0.1,0.2-0.2c0-0.3-0.5,0-0.4-0.5c0.1-0.1,0.3-0.3,0.4-0.5
	c-0.1-0.1-0.2-0.3-0.3-0.5c0.3-0.2,0.5-0.3,0.7-0.4c0-0.1-0.1-0.1-0.1-0.2c0.4,0,0.8,0,1.2,0c0.3-0.2,0.4-0.5,0.7-0.5
	c0.2,0,0.3-0.4,0.5-0.4c0.3,0,0.4-0.3,0.7-0.4c0.2-0.2,0.4,0,0.6-0.2c0.4-0.3,1-0.4,1.3-0.8c0.2,0,0.3,0,0.5,0
	c0.1-0.1,0.1-0.1,0.2-0.2c0.1,0,0.3,0,0.5,0c0.1-0.1,0.1-0.1,0.2-0.2c0.3,0,0.6,0,0.9,0c0.1-0.1,0.2-0.2,0.2-0.2c0.7,0,1.4,0,2,0
	c0.4-0.4,0.8-0.8,1.1-1.1c0.6,0,1-0.2,1.4-0.5c0.2,0,0.4,0,0.6,0c0.2-0.1,0.3-0.3,0.5-0.2c0.1,0.1,0.2,0.2,0.3,0.2
	c0.2,0,0.5,0,0.7,0c0.1,0.1,0.2,0.2,0.3,0.2c0.2,0,0.4,0,0.6,0c0.2,0.1,0.5,0.2,0.7,0.4c0.2,0.1,0.5,0.2,0.7,0.4
	c0.1,0.2,0.5,0.2,0.7,0.4c0.2,0.2,0.4,0.4,0.5,0.5c0.2,0.4,0.4,0.7,0.6,1.2c0,0.2,0,0.5,0,0.8c0.3,0.3,0.7,0.6,1,1
	c0,0.2,0,0.3,0,0.5c-0.4,0.3-0.6,0.7-0.7,1.1c0.1,0.1,0.1,0.2,0.3,0.3c0,0.3,0,0.6,0,0.9c0.1,0.1,0.2,0.2,0.2,0.2
	c0.4,0.4-3,2.1-2,3.6c0.2,0.3,0.9,0.5,1.2,0.7c0.8,0.5,1.4,1.2,2.2,1.6c0.8,0.5,1.7,0.8,2.6,1.3c1.4,0.8,2.6,1.2,4.2,1.2
	c0.1,0.1,0.2,0.1,0.3,0.2c0.3,0,0.7,0,1,0c0.1-0.1,0.1-0.1,0.2-0.2c0.4,0,0.8,0,1.2,0c0.1-0.1,0.2-0.2,0.3-0.2c0.1,0,0.3,0,0.5,0
	c0.1,0.1,0.2,0.2,0.3,0.2c1.3,0,2.7,0,4,0c0.1,0.1,0.1,0.1,0.2,0.2c0.3,0.1,0.6,0,0.8,0.3c0.3-0.1,0.5,0.2,0.7,0.2
	c0.3,0.1,0.4,0.3,0.7,0.3c0.3-0.1,0.4,0.3,0.7,0.2c0.3,0.2,0.7,0.3,0.9,0.6c0,0.5,0,0.9,0,1.4c-0.1,0.1-0.3,0.2-0.2,0.5
	c0.4,0.3,1,0.3,1.3,0.8c0.4,0,0.8,0,1.2,0c0.2,0.2,0.1,0.4,0.1,0.7c0.1,0.1,0.3,0.2,0.4,0.4c0.2,0.2,0.3,0.3,0.5,0.5
	c0.2,0.2,0.4,0.3,0.4,0.5c0.1,0.3,0.3,0.4,0.4,0.5c0.1,0.1,0,0.4,0.2,0.5c0.5,0.3,0.9,1.2,1.3,1.7c2.1,2.8,4.1,5.5,6.2,8.3
	c1,1.3,2,2.6,2.9,4c0.3,0.4,0.6,0.9,1,1.3c0.8,1,1.3,0.3,2.4,0.6c0.5,0.1,1.4,0.4,1.9,0.7c1.1,0.6,1.9,1.5,2.4,2.6
	c0.5,1.2,0.6,2.4-0.2,3.6c-0.6,0.9-2.5,2.2-3.6,2.2c-2.5,0.2-4.6,0.1-5.7-1.9c-0.6-1.1-0.6-3.3-0.2-4.4c0.4-1.2,2.1-1.5,2.1-2.3
	c0-0.4-0.7-1-1-1.4c-3.5-4.7-7-9.4-10.6-14c-0.1-0.2-0.3-0.3-0.5-0.5c-0.3,0.1-0.3-0.2-0.5-0.2c-0.2,0-0.3,0-0.5,0
	c-0.1,0.1-0.1,0.3-0.2,0.4c-0.1,0.1-0.2,0.2-0.3,0.3c-0.1,0-0.3,0-0.5,0c-0.2-0.2-0.4-0.5-0.6-0.8c0,0-0.1,0.1-0.1,0.1
	c-0.4-0.2-0.9-0.4-1.3-0.7c-2.2-1.9-5.1-1.6-7.7-1.7c-0.7,0-2.1-0.6-2.7-0.5c-1.3,0.2-0.1,0.1-1,1.1c0,0-0.1,0.1-0.2,0.2
	c0,0.1,0,0.3,0,0.5c-0.1,0.1-0.3,0.2-0.4,0.4c-0.1,0.1-0.1,0.3-0.2,0.4c-0.1,0.2-0.1,0.4-0.3,0.5c-0.4,0.3-0.4,0.9-0.8,1
	c0,0.1,0,0.2,0,0.3c-0.4,0.4-0.8,0.8-1.2,1.2c0,0.1,0,0.2,0,0.2c-0.3,0.4-0.8,0.5-1.1,0.8c-0.3,0.4-0.7,0.7-1,1
	c0,0.6-0.7,0.7-0.8,1.2c-0.4,0.3-0.5,0.7-0.8,1.1c-0.9,1.1-0.4,1.6,0.2,2.6c0.6,0.9,1.5,1.9,1.8,3c0.3,1,0.1,2.2,0.3,3.2
	c0.2,1.1,0.6,2.3,0.9,3.4c0.7,2.4,0.9,4.9,1.8,7.2c0.2,0.4,0.3,1,0.7,1.4c0.3,0.3,0.7,0.4,1.1,0.9c0,0,0,0.2,0,0.4
	c0.2,0.1,0.4,0.2,0.6,0.3c0.2,0.2,0.3,0.4,0.6,0.5c0.2,0,0.3,0.3,0.6,0.2c0,0.3,0,0.6,0,0.8c0.2,0.2,0.6,0,0.5,0.3
	c0.2,0,0.4,0,0.5,0c0.1,0.1,0.2,0.2,0.3,0.2c0.2,0,0.5,0,0.7,0c0.1,0.1,0.2,0.2,0.4,0.3c0,0.1,0,0.2,0,0.2c0.1,0.1,0.2,0.2,0.2,0.2
	c0,0.3,0,0.5,0,0.7c-0.2,0.2-0.3,0.4-0.6,0.3c-0.1,0.1-0.3,0.3-0.4,0.4c-0.2,0.2-0.6-0.2-0.7,0.3c-0.6,0-1.2,0-1.8,0
	c-0.1-0.1-0.1-0.1-0.2-0.2c-0.5,0-1.1,0-1.7,0c-0.1-0.1-0.2-0.2-0.2-0.2c-0.4,0-0.8,0-1.2,0c-0.1-0.1-0.2-0.2-0.3-0.2
	c-0.4,0-0.8,0-1.2,0c-0.1-0.1-0.1-0.1-0.1-0.2c-0.3-0.2-0.6,0-0.8-0.1c-0.2-0.3-0.5-0.1-0.7-0.2c-0.2-0.1-0.5-0.3-0.7-0.4
	c-0.2-0.2-0.4-0.4-0.6-0.6c0-0.2,0-0.4,0-0.7c0.5-0.5,0.5-0.6,0.7-1.3c0-0.1,0.1-0.1,0.1-0.2c0.1-0.2,0.2-0.4,0.4-0.7
	c0-0.2,0-0.4,0-0.6C42.2,66.7,42.2,66.7,42.3,66.6 M37.3,36.9c-0.3,0.6-1.3,2-1.5,3.2c-0.2,1.4,2.1,3.2,2.9,4.2
	c0.4-0.3,0.8-0.7,1.2-1.1c0.1,0,0.2,0,0.2,0c0.6-0.6,1.2-1.2,1.7-1.7c0.1-0.2-0.1-0.5,0.2-0.7c0.2-0.2,0-0.5,0.2-0.6
	c0.2-0.1,0.1-0.4,0.3-0.6c0.1-0.1,0.3-0.4,0.3-0.6c0.1-0.3,0.3-0.4,0.4-0.6c0.1-0.2,0.2-0.4,0.3-0.7c0-0.9,0-1.9,0-3
	c0,0,0-0.1,0.1-0.1c0.1-0.1,0.1-0.1,0.2-0.2c0-0.2,0.1-0.4-0.1-0.6c-0.2,0-0.4,0-0.5,0c-0.2,0.2-0.3,0.3-0.4,0.4c-0.4,0-0.8,0-1.2,0
	c-0.1,0.1-3,0.1-3.2,0.1 M55.5,31.9c-0.2,0-0.5,0-0.6,0c-0.3-0.2-0.6-0.3-0.8-0.4c-1.1,0-2.1,0-3.1,0c0,0-0.1,0.1-0.1,0.1
	c0,0.1,0,0.2,0,0.3c0.1,0.1,0.2,0.2,0.4,0.3c0.1,0,0.3-0.1,0.4,0c0.2,0.1,0.4,0.2,0.6,0.3c0.2,0.2,0.4,0.1,0.6,0.3
	c0.1,0.2,0.4,0,0.6,0.2c0.2,0.2,0.5,0.3,0.8,0.4c0.3,0,0.6,0.4,1,0.3c0.1,0,0.2,0.1,0.3,0.2c0.4,0,0.8,0,1.1,0c0,0,0.1,0,0.1,0.1
	c0,0.1,0.1,0.1,0.2,0.2c0.4,0,0.8,0,1.1,0c0.5-0.2,0.9-0.5,1.2-0.9c0-0.2,0.1-0.5-0.1-0.8c-0.3,0-0.7,0-1,0
	c-0.1-0.1-0.2-0.2-0.2-0.2c-0.7,0-1.5,0-2.2,0C55.6,32,55.5,31.9,55.5,31.9z M46.4,36.3c-0.2-0.2-0.3-0.3-0.3-0.4
	c-0.4,0-0.7,0-1.1,0c0,0.2,0.1,0.4,0,0.5c-0.3,0.4-0.4,0.9-0.7,1.2c0,0.3,0,0.6,0,0.9c0.2,0.2,0.4,0.4,0.6,0.6
	c0.4-0.4,0.7-0.7,1.1-1.1c0-0.2,0.1-0.3,0.2-0.4c0.1-0.1,0-0.3,0.1-0.4c0.1-0.2,0.2-0.3,0.2-0.5C46.4,36.6,46.4,36.5,46.4,36.3z"/>
</svg>
