<?xml version="1.0" encoding="utf-8"?>
<!-- Generator: Adobe Illustrator 28.6.0, SVG Export Plug-In . SVG Version: 9.03 Build 54939)  -->
<svg version="1.0" id="Layer_1" xmlns="http://www.w3.org/2000/svg" xmlns:xlink="http://www.w3.org/1999/xlink" x="0px" y="0px"
	 viewBox="0 0 95.6 83.9" enable-background="new 0 0 95.6 83.9" xml:space="preserve">
<path fill-rule="evenodd" clip-rule="evenodd" fill="#20BCBA" d="M86.1,61c0.4,0.4,0.9,0.8,1.2,1.3c0.1,0.2,0.3,0.4,0.4,0.6
	c0.1,0.2,0.4,0.4,0.6,0.6c0.1,0.1,0.3,0.3,0.4,0.4c0.2,0.1,0.4,0.2,0.6,0.3c0.1,0,0.2,0,0.3,0c0.1,0.1,0.1,0.1,0.2,0.2
	c0.7,0,1.5,0,2.2,0c0.2,0.2,0.4,0.3,0.5,0.6c0,0.1,0.1,0.3,0.2,0.4c0,0.1,0,0.2,0,0.3c0.1,0.1,0.1,0.2,0.2,0.2c0,0.3,0,0.5,0,0.8
	c0.1,0.1,0.1,0.1,0.2,0.2c0,0.5,0,1.1,0,1.7c-0.3,0.2-0.5,0.5-0.8,0.7c-0.3,0.1-0.6,0.4-0.9,0.6c-1.2,0-2.5,0-3.7,0
	c-0.1,0.1-0.1,0.1-0.2,0.2c-1.7,0-3.4,0-5,0c-0.1-0.1-0.1-0.1-0.2-0.2c-0.5,0-1.1,0-1.6,0c-0.1-0.1-0.1-0.1-0.2-0.2
	c-0.3,0-0.7,0-1,0c-0.1-0.1-0.1-0.1-0.2-0.2c-0.4,0-0.8,0-1.2,0c-0.1-0.1-0.2-0.1-0.2-0.2c-0.2,0-0.5,0-0.6-0.2
	c-0.3,0.1-0.3-0.3-0.6-0.2c-0.2-0.2-0.5-0.5-0.7-0.7c0.2-0.4,0.4-0.8,0.6-1.2c0,0,0,0-0.1-0.1c0.3-0.3,0.5-0.5,0.8-0.8
	c0-0.5,0-1.1,0-1.7c0.1-0.1,0.1-0.2,0.2-0.3c0-0.2,0-0.4,0-0.6c0.1-0.1,0.1-0.1,0.2-0.2c0-0.3,0-0.5,0-0.8c0.1-0.1,0.1-0.1,0.2-0.2
	c0-0.2,0-0.4,0-0.5c0.1-0.2,0.2-0.4,0.3-0.6c1.8-3.5,1-6.7,0.3-10.7c-0.3-1.7,0-3.6,0.3-5.3c0.2-1.4,2-4.2,0.2-4.5
	c-1.3-0.2-3.3,1.3-4.5,1.7c-2.1,0.7-3.8,1.6-4.9,3.5c-3.5,5.8-2.8,13-2.8,19.4c0,2.8-1,4.7-3.9,5.1c-2.7,0.4-6.1-0.1-7.8-2.5
	c-0.3-0.5-1-3-1.7-3c-0.5,0-1,0-1.6,0c-0.1-0.1-0.1-0.1-0.2-0.1c-0.6-0.1-0.7-0.6-0.9-1c-0.1-0.2,0-0.4-0.2-0.5
	c0.1-0.3-0.3-0.4-0.2-0.6c0.1-0.2-0.2-0.3-0.2-0.5c-0.2-0.4-0.4-0.8-0.6-1.2c0-0.1,0-0.1,0-0.2c-0.2-0.2-0.4-0.4-0.6-0.6
	c-0.2-0.2-0.2-0.5-0.4-0.6c-0.3-0.3-0.7-0.6-0.9-1c-0.4-0.3-0.6-0.7-0.8-1.2c-0.1-0.2-0.1-0.4-0.1-0.6c-0.1-0.1-0.2-0.2-0.3-0.3
	c-0.1,0.2-0.3,0.3-0.4,0.5c-0.1,0.2-0.2,0.3-0.3,0.6c0,0.2,0,0.5,0,0.7c-0.1,0.1-0.1,0.1-0.2,0.2c0,0.1,0,0.3,0,0.4
	C45.1,58.9,45,59,45,59.1c0,0.5,0,1.1,0,1.6c-0.1,0.1-0.1,0.1-0.2,0.2c0,1.2,0,2.4,0,3.7c0.1,0.1,0.2,0.2,0.4,0.4c0,0.1,0,0.3,0,0.4
	c0,0.1-0.1,0.1-0.2,0.2c0,0.1,0,0.3,0,0.4c-0.1,0.1-0.1,0.1-0.2,0.2c0,0.1,0,0.3,0,0.4c-0.1,0.1-0.1,0.2-0.2,0.2c0,0.2,0,0.4,0,0.6
	c-0.1,0.1-0.1,0.1-0.2,0.2c0,0.2,0,0.4,0,0.6c-0.1,0.1-0.2,0.2-0.2,0.2c0,0.4,0,0.7,0,1c0.1,0.1,0.2,0.2,0.3,0.3c0.2,0,0.4,0,0.6,0
	c0.1,0.1,13.5,3,14.3,3c0.1,0.1,0.1,0.1,0.2,0.2c0.2,0,0.4,0,0.6,0c0.1,0.1,0.2,0.2,0.3,0.3c0,0.4,0,0.9,0,1.3
	c0.3,0.2,0.5,0.3,0.7,0.4c0.3,0.1,4.1,0.7,4.2,0.8c0.7,0,1.5,0,2.2,0c0.3,0.4,0.9,0.5,1.1,1c-0.1,0.1-0.1,0.2-0.2,0.3
	c0,0.2,0,0.4,0,0.6c-0.3,0.3-0.6,0.6-0.9,0.9c-0.3,0-0.5,0.4-0.9,0.2c-0.3-0.5-1-0.5-1.4-1c-0.3,0-4.4-1.2-4.6-1.2
	c-0.1-0.1-0.2-0.1-0.2-0.2c-0.3,0-0.6,0-0.8,0c-0.3,0.3-0.5,0.5-0.8,0.8c-0.5,0-0.9,0-1.5,0C57.4,77,45,74.2,44.8,74
	c-0.2,0-0.3,0-0.5,0c-0.1-0.1-0.1-0.1-0.2-0.2c-0.1,0-0.2,0-0.4,0c-0.1-0.1-0.1-0.1-0.2-0.2c-0.1,0-0.3,0-0.4,0
	c-0.2,0.4-0.7,0.4-1,0.8c-0.4,0-0.8,0-1.1,0c-0.2,0.1-0.4,0.2-0.5,0.2c-0.1-0.1-0.2-0.2-0.2-0.2c-0.2,0-0.4,0-0.5,0
	c-0.2-0.1-0.4-0.2-0.5-0.3c-0.1-0.2-0.2-0.4-0.3-0.7c-0.2-0.1-0.4-0.4-0.6-0.6c-0.1,0-0.3,0-0.4,0c-0.1-0.1-0.1-0.1-0.2-0.2
	c-0.1,0-0.2,0-0.3,0c0,0-0.1,0-0.1,0c-0.2-0.2-0.2-0.2-0.6-0.2C36.5,72.3,9,65.8,8.7,65.8c-0.1-0.1-0.1-0.1-0.2-0.2
	c-0.5,0-1,0-1.4,0c-0.4,0.3-0.9,0.4-1.2,0.8c-0.3,0-0.6,0.5-1,0c0,0-0.1,0-0.2,0c-0.3,0-0.5,0-0.6-0.1c-0.3-0.2-0.5,0-0.7-0.1
	c-0.1,0-0.1-0.1-0.1-0.1c-0.1,0-0.3,0-0.4,0c-0.2-0.2-0.5-0.5-0.7-0.7c0,0,0-0.1,0-0.2c-0.1-0.1-0.3-0.2-0.4-0.3c0-0.6,0-1.1,0-1.7
	C2.1,63,1.9,62.7,2,62.5C2,62.3,2.2,62.2,2.3,62c0.1,0,0.1,0,0.2,0c0.3-0.3,0.6-0.7,1-1c0.3,0.1,0.3-0.3,0.6-0.2
	c0.1,0,0.4-0.2,0.5-0.2c0.3,0.1,0.4-0.3,0.6-0.2c0.1,0.1,0.1,0.1,0.2,0.2c0.2,0,0.4,0,0.6,0c0.2,0.2,0.5,0.2,0.6,0.4
	c0.3-0.1,0.4,0.3,0.6,0.2c0.1,0.3,0.5,0.1,0.7,0.3c0.2,0.2,0.6,0,0.7,0.3c0.3,0,28.2,5.7,28.4,5.8c0.2,0,0.3,0,0.5,0
	c0.3-0.3,0.6-0.7,1-1c2.2-2.1,1.6-4.5,1.6-7.3c0-2,0.4-4.1,0.5-6.2c0.1-1.9,0.4-3.9,0.9-5.8c0.9-3.5,1.5-6.4,1.7-10
	c0.1-1.3-0.2-2.8-0.3-4.1c-0.2-1.4-0.5-2.7-0.6-4.1c-0.1-1.9,1-3.7,1-5.5c0.1-0.1,0.1-0.1,0.2-0.2c0.1-0.4,0-0.7,0-1
	c0.1-0.1,0.1-0.1,0.2-0.2c0-0.3,0-0.6,0-0.8c0.1-0.1,0.1-0.2,0.2-0.2c0-0.3,0-0.7,0-1c0.1-0.1,0.1-0.2,0.2-0.2c0-0.2,0-0.4,0-0.6
	c0.1-0.1,0.1-0.2,0.2-0.3c-0.2-0.4,0.2-0.7,0.2-1c0-0.2,0.3-0.4,0.2-0.6c0-0.2,0.1-0.4,0.3-0.6c0.2-0.2,0.1-0.4,0.1-0.5
	c0.1-0.1,0.1-0.2,0.2-0.2c0-0.2,0-0.4,0-0.6c0-0.4-0.5-0.5-0.6-0.9c-0.1-0.1-0.2-0.3-0.2-0.4c0-0.2-0.2-0.2-0.3-0.4
	c-0.1-0.2-0.3-0.4-0.3-0.7c0-0.2-0.1-0.3-0.2-0.4c-0.1-0.1-0.1-0.3-0.2-0.5c0-0.2,0-0.5,0-0.9c0.2-0.1,0.2-0.5,0.4-0.6
	c0,0,0-0.1,0-0.2c0.3-0.3,0.7-0.7,1-1c0-0.1,0-0.1,0-0.2c0.4-0.2,0.4-0.6,0.7-0.9c0.1-0.1,0.2-0.4,0.3-0.6c0.1-0.2,0.2-0.4,0.3-0.6
	c0.1-0.1,0.2-0.3,0.4-0.2c0,0,0.1,0,0.1-0.1c0.3-0.2,0.4-0.4,0.8-0.6C47.8,6.3,48,6,48.3,5.7c0.1,0,0.1,0,0.3,0
	c0.1-0.1,0.2-0.3,0.3-0.4c0.2,0,0.3,0,0.4,0c0.1-0.1,0.2-0.1,0.3-0.2c0.3,0,0.5,0,0.8,0c0.1-0.1,0.2-0.1,0.2-0.2c0.2,0,0.4,0,0.5,0
	c0.1-0.1,0.2-0.1,0.3-0.2c0.1-0.1,0.3-0.1,0.4-0.2c0.1,0,0.2,0,0.3,0c0.1-0.1,0.1-0.1,0.2-0.2c0.6,0,1.2,0,1.8,0
	c0.1,0.1,0.2,0.2,0.2,0.2C54.8,4.6,55.1,5,55.6,5c0.3,0.2,0.7,0.4,1.1,0.5C56.9,5.6,57,5.9,57.4,6c0.1,0,0.2,0.2,0.3,0.3
	C57.8,6.7,58,7,58.2,7.4c0.1,0.1,0,0.3,0,0.4c0.1,0.1,0.1,0.2,0.2,0.2c0,0.1,0,0.3,0,0.4c0.2,0.1,0.2,0.5,0.4,0.6
	c0.1,0.1,0,0.3,0,0.4c0.6,0.6,1.3,1.3,1.9,1.9c0.1,0,0.2,0.1,0.3,0.1c0,0.1,0,0.2,0,0.3c0.1,0.1,0.3,0.2,0.4,0.3c0,0.4,0,0.7,0,1
	c0.1,0.1,0.1,0.1,0.2,0.2c0,1,0,2,0,3.1c-0.1,0.1-0.1,0.1-0.2,0.2c0,2.3,0,4.6,0,6.9c0,0.1,0,0.1,0,0.2c0,0,0.1,0.1,0.1,0.1
	c0,0.3,0,0.6,0,0.8c0.1,0.1,0.1,0.2,0.2,0.2c0,0.2,0,0.4,0,0.6c0.1,0.3,0.5,0.5,0.4,0.9c0.2,0.3,0.3,0.6,0.5,1
	c0.4,0.3,0.7,0.8,1.3,1.1c0.2,0.1,0.4,0.4,0.6,0.6c0.2,0.2,0.4,0.4,0.6,0.6c0.3,0,0.4,0.3,0.6,0.4c0.3,0,0.6,0,0.9,0
	c0.2-0.3,0.5-0.5,0.7-0.8c0.1,0,0.1,0,0.1,0c0.1-0.1,0.2-0.1,0.3-0.2c0.4,0,0.7,0,1,0c0.2,0.3,0.3,0.6,0.5,1
	c-0.2,0.4,0.3,0.7,0.2,1.1c0,0.1,0.1,0.2,0.2,0.3c2.8,0,5.5-0.2,8.4,0.1c2.2,0.2,5.2-0.9,7.2-0.3c4.9,1.6,2.7,9,2,12.4
	c-0.6,3.1-1.1,5.9-1.8,8.9c-0.5,1.9-0.8,3.9-0.5,5.9c0.1,0.9,0.4,1.7,0.9,2.5C85.9,60.8,86,60.9,86.1,61z M48.1,46.5
	C48.1,46.5,48,46.5,48.1,46.5C48,46.1,48,45.7,48,45.4c0.3-0.3,0.4,0.3,0.7,0.1c0.1-0.1,0-0.3,0.1-0.5c-0.3-0.2-0.5-0.6-0.9-0.7
	c-0.2,0.3,0,0.7-0.2,1c-0.3,0.2,0,0.6-0.4,0.8c0,0.3,0,0.5,0,0.8c-0.1,0.1-0.1,0.1-0.2,0.2c0,0.3,0,0.7,0,1c0,0-0.1,0.1-0.1,0.1
	C47,48.2,47,48.2,47,48.2c0,0.7,0,1.5,0,2.2c-0.1,0.1-0.1,0.1-0.2,0.2c-0.1,0.4,0,0.8,0,1.2c0,0-0.1,0.1-0.2,0.2c0,0.3,0,0.7,0,1.1
	c0.1,0.1,0.2,0.1,0.3,0c0.1-0.2,0.4-0.1,0.6-0.4c0.1-0.2,0.4-0.1,0.5-0.3c0.1-0.2,0.3-0.1,0.5-0.1c0.1,0.1,0.1,0.1,0.2,0.2
	c0.1,0,0.2,0,0.4,0c0.1,0.1,0.1,0.1,0.2,0.2c0.1,0,0.3,0,0.4,0c0,0.1,0.1,0.2,0.1,0.4c0.3,0.1,0.6,0,0.9,0c0.2,0.2,0.4,0.4,0.6,0.6
	c0.2,0.2,0.4,0.4,0.6,0.7c0.1,0.2,0.3,0.4,0.5,0.6c0.1,0,0.2-0.1,0.3-0.1c0-0.1,0-0.2,0-0.2c-0.1-0.1-0.2-0.2-0.4-0.4
	c-0.1-0.2,0-0.5-0.2-0.7c0.1-0.3-0.2-0.6-0.2-0.9c0-0.3-0.4-0.5-0.2-0.8c-0.3-0.4-0.4-0.9-0.7-1.3c-0.1-0.2-0.1-0.3-0.1-0.5
	c-0.1-0.1-0.3-0.2-0.4-0.2c0-0.2,0-0.3,0-0.3c-0.3-0.4-0.8-0.6-0.9-1.1c-0.1,0-0.1,0-0.2,0c-0.2-0.3,0-0.6-0.1-0.9
	c0,0-0.1-0.1-0.1-0.1c0-0.1,0-0.3,0-0.4c-0.2-0.2-0.4-0.4-0.6-0.6C48.2,46.4,48.2,46.4,48.1,46.5z"/>
</svg>
