<?xml version="1.0" encoding="utf-8"?>
<!-- Generator: Adobe Illustrator 28.6.0, SVG Export Plug-In . SVG Version: 9.03 Build 54939)  -->
<svg version="1.0" id="Layer_1" xmlns="http://www.w3.org/2000/svg" xmlns:xlink="http://www.w3.org/1999/xlink" x="0px" y="0px"
	 viewBox="0 0 105.8 103.9" enable-background="new 0 0 105.8 103.9" xml:space="preserve">
<path fill-rule="evenodd" clip-rule="evenodd" fill="#EF3B4F" d="M79,64.5c-0.2,1.2-0.3,2.3-0.2,3.5c0,0.1,0,0.2,0,0.3
	c0,0,0.1,0.1,0.1,0.1c0,0.2,0,0.4,0,0.7c0.1,0.1,0.1,0.1,0.1,0.1c0,1,0,2,0,3c0.1,0.1,0.1,0.1,0.1,0.1c0.4,0.4-0.2,0.7,0.4,1
	c0.3,0.2,1.5-0.1,1.9-0.1c1.3,0,2.7,0.1,3.8,0.7c0.7,0.4,1.3,1,2.1,1.4c0.6,0.3,3.1,1.4,3.7,0.7c0.1-0.1,0.4,0,0.4-0.2
	c0.1,0,0.3,0,0.4,0c0,0,0.1-0.1,0.1-0.1c0.4,0,0.8,0,1.2,0c0,0,0.1-0.1,0.1-0.1c0,0,0.1,0,0.1,0c0.3,0,0.7,0,0.9,0
	c0.2,0.1,0.4,0.2,0.6,0.3c0.2,0.2,0.4,0.4,0.7,0.7c0,1.1,0,2.2,0,3.3c0,0,0.1,0.1,0.1,0.1c0,0,0.1,0.1,0.1,0.1c0,0.6,0,1.2,0,1.8
	c0,0,0.1,0.1,0.1,0.1c0,0.2,0,0.4,0,0.7c0.1,0.1,0.1,0.1,0.1,0.1c0,0.2,0,0.4,0,0.5c0.1,0.1,0.1,0.1,0.1,0.1c0,0.4,0,0.8,0,1.2
	c0,0-0.1,0.1-0.1,0.1c0.1,0.2-0.1,0.4-0.2,0.6c-0.1,0.1-0.1,0.3-0.2,0.4c0.1,0.2-0.1,0.3-0.1,0.5c0,0.1,0,0.2,0,0.3
	c-0.2,0.3-0.3,0.7-0.6,0.9c-0.1,0-0.1,0-0.2,0c-0.1,0-0.1,0.1-0.1,0.1c-0.2,0-0.4,0-0.7,0c0,0-0.1,0.1-0.1,0.1
	c-0.2,0-0.3-0.2-0.5-0.1c-0.1,0-0.3-0.3-0.5-0.6c-0.1-0.2-0.3-0.3-0.4-0.7c0-0.3,0-0.8,0-1.2c-0.2-0.1-0.2-0.3-0.5-0.3
	c-0.1,0-0.2-0.1-0.2-0.2c0-0.3-0.3-0.4-0.4-0.6c-0.1-0.2-0.2-0.4-0.3-0.6c0.1-0.1,0.2-0.1,0.3-0.2c0-0.1,0-0.3,0-0.3
	c-0.9-1.3-1.2-2.5-2.8-3.2c-1.6-0.8-3.6-0.8-5.4-0.8c-2.1,0-4.2,0-6.3-0.1c-2.1-0.1-2.7-1.7-3.4-3.5c-0.5-1.3-1.4-4-2.4-5
	c-1.1-1.2-2.1,0.7-3,1.7c-0.4,0.4-0.8,1.2-1.1,1.6c-0.2,0.3-0.4,0.5-0.6,0.8c-0.3,0.5-0.7,1.1-1,1.6c-0.6,1.4-0.1,3.1-0.7,4.5
	c-0.5,1.1-1.4,2.1-2.1,3c-0.9,1.3-2.1,3.6-2.5,5.1c-0.1,0.2-0.2,0.5-0.3,0.7c-0.1,0.1,0,0.2-0.1,0.3c-0.1,0.1-0.1,0.2-0.2,0.3
	c-0.1,0.1,0,0.2-0.1,0.3c-0.2,0.2,0,0.5-0.1,0.7c0.1,0.2,0.3,0.4,0.3,0.7c0,0-0.1,0.1-0.1,0.1c0,0.2,0,0.3,0,0.5
	c-0.1,0.1-0.1,0.1-0.2,0.2c-0.1,0-0.3,0-0.4,0c-0.1,0.1-0.1,0.2-0.2,0.4c0,0.1,0,0.2,0,0.3c0,0.1-0.1,0.1-0.1,0.2c0,0.1,0,0.2,0,0.4
	c0,0.1-0.1,0.1-0.1,0.2c0,0.1,0,0.1,0,0.2c0,0.1-0.2,0.2-0.1,0.3c0,0-0.1,0.1-0.2,0.2c0,0,0,0-0.1,0c-0.1,0-0.2,0-0.3,0
	c0,0-0.1,0.1-0.1,0.1c-0.3,0-0.6,0-0.9,0c0,0-0.1-0.1-0.1-0.1c-0.1-0.1-0.3,0-0.4,0c-0.1-0.1-0.2-0.1-0.3-0.1c-0.1,0-0.2,0-0.2,0
	c-0.1-0.2-0.4,0-0.5-0.2c-0.2,0-0.3-0.2-0.4-0.3c0,0-0.1,0-0.1,0c-0.3-0.3-0.6-0.6-0.9-0.9c-0.1-0.1-0.2-0.2-0.4-0.3
	c-0.1-0.1-0.3-0.2-0.4-0.4c0,0-0.1,0-0.1,0c-0.1-0.2-0.3-0.1-0.4-0.3c-0.3,0-0.5-0.2-0.8-0.3c-0.1-0.1-0.2-0.1-0.3-0.1
	c-0.1-0.1-0.1-0.1-0.2-0.1c-0.1,0-0.2-0.1-0.2-0.2c-0.1-0.1-0.1-0.1-0.2-0.2c-0.4-0.4-0.9-0.9-1.3-1.3c-0.1-0.1-0.2-0.2-0.3-0.3
	c0-0.1-0.1-0.2-0.2-0.3c-0.1-0.1-0.1-0.2-0.2-0.3c-0.1-0.1-0.1-0.2-0.1-0.3c-0.1-0.1-0.1-0.1-0.2-0.2c0-0.1,0-0.2,0-0.3
	c0.3-0.5,0.6-0.8,1.1-1.1c0.2,0,0.4,0,0.6,0c0.2,0.1,0.4,0.2,0.6,0.3c0.2,0.1,0.3,0.3,0.5,0.5c0.1,0,0.3,0,0.4,0
	c0,0,0.1,0.1,0.1,0.1c0.3,0,0.6,0,0.9,0c0,0,0.1,0.1,0.1,0.1c0.2,0.1,0.4,0,0.5,0c0.1-0.1,0.1-0.1,0.2-0.2c0-0.1,0-0.2,0-0.3
	c0.1-0.1,0.3,0,0.5-0.1c0.1,0.1,0.1,0.2,0.2,0.3c0.1,0,0.2,0,0.3,0c0.1-0.1,0-0.2-0.1-0.3c0-0.1,0-0.3,0-0.4c0,0,0.1-0.1,0.1-0.1
	c0-0.1,0-0.2,0-0.2c0.1-0.1,0.1-0.3,0.2-0.3c0.1,0,0.1,0,0.1,0c0.1,0.1,0.3,0.2,0.3,0.4c0.1,0.2,0.2,0.2,0.3,0.4c0,0.1,0,0.3,0,0.4
	c0.1,0.1,0.1,0.2,0.2,0.3c0,0,0.1,0,0.1,0c0.1,0,0.3-0.7,0.4-0.9c0.1-0.7,1-1.5,1.3-2.1c0.5-1.1,0.5-2.6,0.8-3.8
	c0.2-0.8,0.3-1.7,0.7-2.5c0.3-0.7,1-1.4,1.2-2.1c0.5-1.8,0.1-3.6,0.8-5.3c0.5-1.4,2.9-4.2,1.3-5.3c-0.9-0.6-3.3-0.5-4.4-0.4
	c-1.8,0.2-3.7,0.6-5.5,0.6c-2.2,0-2.1-0.7-3.2-2.3c-1-1.3-2.5-4.8-4-1.6c0,0.1-0.1,0.2-0.2,0.4c0,0.1,0,0.2,0,0.3
	c0,0.1-0.1,0.1-0.1,0.1c0.1,0.2-0.2,0.2-0.1,0.4c-1.5,0.8-0.5,3.1-1.1,4.8c-0.9,2.3-2.4,4-2.4,6.5c-0.1,0.1-0.1,0.1-0.1,0.1
	c0,0.1,0,0.3,0,0.4c-0.1,0.1-0.1,0.1-0.1,0.1c0,0.2,0,0.3,0,0.5c0,0.1-0.1,0.1-0.1,0.2c0,0.2,0,0.3,0,0.5c-0.2,0.1-0.1,0.4-0.3,0.5
	c-0.2,0.1-0.2,0.3-0.3,0.4c-0.1,0.2-0.3,0.2-0.5,0.4c-0.2,0-0.3,0-0.5,0c0,0-0.1-0.1-0.1-0.1c-0.1,0-0.3,0-0.4,0
	c0,0-0.1-0.1-0.1-0.1c-0.3,0-0.5,0-0.8,0c-0.1-0.2-0.3-0.2-0.3-0.5c-0.2-0.2-0.5-0.5-0.7-0.7c-0.2,0-0.3,0-0.5,0
	C36,76.1,36,76.1,35.9,76c-0.2,0-0.5,0-0.8,0c-0.2-0.1-0.3-0.2-0.4-0.3c-0.1-0.1-0.1-0.3-0.3-0.4c-0.1,0-0.2,0-0.2,0
	c-0.2-0.1-0.2-0.6-0.6-0.5c0-0.3,0-0.7,0-1c-0.1-0.1-0.1-0.1-0.1-0.1c0-0.1,0-0.2,0-0.3c0.1-0.1,0.3-0.2,0.4-0.2
	c0.2,0,0.3-0.1,0.4-0.2c0.1,0.1,0.1,0.1,0.2,0.2c0.1,0,0.2,0,0.3,0c0.2,0.1,0.3,0.2,0.5,0.3c0.3,0,0.7,0,1,0c0,0,0.1-0.1,0.1-0.1
	c0.1,0,0.2,0,0.3,0c0,0,0.1-0.1,0.1-0.1c0,0,0.1,0,0.2,0c0.1,0,0.1,0,0.2,0c0.2-0.1,0.5-0.2,0.6-0.5c0,0,0-0.1,0-0.3
	c0,0,0.7-0.5,0.7-0.6c0.2-0.3,0.3-1,0.4-1.4c0.2-1.1,0.1-2.2,0.2-3.3c0.1-1,0.2-2.2,0.6-3.2c0.2-0.4,0.6-1.7,0.8-2
	c0-0.1-0.1-0.1-0.1-0.3c0-0.2,0-0.4,0-0.6c0,0,0.1-0.1,0.1-0.1c0-0.4,0-0.9,0-1.3c0.1-0.1,0.1-0.1,0.1-0.1c0-0.3,0-0.7,0-1
	c0,0,0.1-0.1,0.1-0.1c0-0.1,0-0.3,0-0.4c0.2-0.2,0.4-0.4,0.6-0.6c0.2,0,0.5,0,0.7,0c0.1-0.1,0.1-0.1,0.2-0.2c0,0,0-0.1,0-0.1
	c0,0,0.1-0.1,0.1-0.1c0-0.2,0-0.4,0-0.5c-0.1-0.1-0.1-0.1-0.2-0.2c-0.1,0-0.3,0-0.4,0c0,0-0.1-0.1-0.1-0.1c-2.1,0-4,0.4-5.1-1.8
	c-0.5-1-1.1-2.8-2.1-3.3c-0.1,0.1-0.2,0.3-0.4,0.4c-0.2,0-0.2,0.1-0.3,0.3c0,0.1,0.1,0.1,0.1,0.2c0,0-0.1,0.1-0.1,0.1
	c0,0.2-0.1,0.5-0.3,0.7c-0.1,0-0.2,0-0.2,0c-0.1,0-0.1,0.1-0.2,0.1c-0.1-0.1-0.2-0.1-0.3-0.1c-0.1,0-0.2-0.1-0.3-0.1
	c-0.2,0.1-0.3,0.2-0.4,0.3c0,0.1,0,0.2,0,0.2c-0.1,0.1-0.1,0.3-0.2,0.4c-0.1,0.1-0.2,0.2-0.2,0.4c0,0.1,0,0.3-0.1,0.3
	c0.1,0-0.4,4.2-0.6,4.7c-0.3,0.7-0.6,1.2-0.8,1.9c-0.2,0.8-0.7,2.1-0.7,2.9c0,0.4,0,0.7,0,1.1c-0.1,0.1-0.1,0.1-0.1,0.1
	c0,0.3,0,0.5,0,0.8C29.2,66,29,66,28.8,66.1c-0.2,0.1-0.3,0.2-0.5,0.3c0,0-0.1,0-0.2,0c0,0-0.1-0.1-0.1-0.1c-0.1,0-0.3,0-0.4,0
	c-0.1,0-0.1-0.1-0.1-0.1c-0.1,0-0.2,0-0.4,0c0,0-0.1-0.1-0.2-0.1c0,0,0,0,0,0c-0.1,0-0.3,0-0.4,0c-0.1,0-0.2-0.1-0.3-0.1
	c-0.2,0-0.2-0.2-0.4-0.1c-0.2,0.1-0.2-0.1-0.3-0.1c-0.2,0-0.3-0.1-0.5-0.1c-0.1,0-0.3-0.2-0.4-0.2c-0.1,0-0.1,0-0.2,0
	c-0.2-0.2-0.4-0.5-0.7-0.6c-0.3-0.2-0.4-0.4-0.7-0.6c-0.1-0.1-0.1-0.2-0.2-0.4c0-0.1,0-0.2,0-0.3c0,0,0.1-0.1,0.1-0.1
	c0.3-0.1,0.5-0.3,0.8-0.4c0.1,0,0.3,0,0.5,0c0,0,0.1,0.1,0.1,0.1c0.2,0,0.3,0,0.5,0c0,0,0.1,0.1,0.1,0.1c0.1,0,0.2,0,0.3,0
	c0,0,0.1,0.1,0.1,0.1c0.2,0,0.5,0,0.7,0c0.1-0.1,0.1-0.1,0.2-0.2c0-0.1,0-0.2,0-0.3c0-0.3,1.1-1.5,1.2-1.9c0.2-0.5,0.4-1,0.6-1.5
	c0.6-1.7,1-3.3-0.6-4.7c-1.4-1.1-3.1-1.7-4.4-3c-0.6-0.5-2.5-3.6-3.2-3.2c-1.3,0.7-3,1-2.8,2.8c0.1,0.6,0.4,1.1,0.4,1.8
	c0,0.3-0.3,2.2,0,2.4c0.1,0.1,0.2,0.1,0.3,0.2c0,0.3,0,0.7,0,1c0.1,0.1,0.2,0.2,0.2,0.2c0,0.6,0,1.2,0,1.9c-0.1,0.2-0.3,0.2-0.4,0.3
	c-0.2,0-0.5,0-0.7,0c0,0-0.1-0.1-0.1-0.1c-0.2,0-0.4,0-0.7,0c-0.1-0.1-0.1-0.1-0.1-0.1c-0.5,0-1.1,0-1.6,0C14,58.8,14,58.8,14,58.8
	c-0.1,0-0.3,0-0.4,0c-0.1-0.1-0.2-0.1-0.3-0.2c-0.1-0.1-0.3-0.3-0.4-0.4c0-0.1-0.1-0.2-0.1-0.3c0-0.1,0-0.2,0-0.3
	c0.1-0.1,0.1-0.1,0.2-0.2c0.4,0,0.7,0,1.1,0c0.1-0.1,0.2-0.1,0.3-0.2c0.1,0,0.2-0.1,0.2-0.2c0.1,0,0.2,0,0.3,0
	c0.2-0.1,0.2-0.3,0.3-0.4c0.9-1.1,0.1-2.9-0.3-4c-0.3-0.8-1.1-1.8-1.2-2.7c-0.1-2,3.6-4.4,2.8-5.7c-0.1-0.1-0.2-0.1-0.3-0.1
	c-0.1-0.1-0.3-0.3-0.5-0.4c-0.2,0-0.4,0-0.7,0c-0.1-0.3-0.4-0.5-0.7-0.8c-0.1,0-0.3,0-0.4,0c0,0-0.1,0.1-0.1,0.1c-0.2,0-0.3,0-0.5,0
	C12.7,42.8,8,41,7.9,41c-0.2-0.1-0.3-0.3-0.4-0.4c0-0.2-0.1-0.3-0.2-0.3c-0.2-0.1-0.5-0.3-0.7-0.3c-0.1-0.2-0.3-0.1-0.5-0.2
	c-0.2-0.1-0.4-0.2-0.6-0.3c-0.1,0-0.3,0-0.4,0c-0.2-0.2-0.3-0.3-0.5-0.5c0,0,0-0.1,0-0.2c0,0,0.1-0.1,0.2-0.2c0.1,0,0.3,0,0.4,0
	c0.1,0.1,0.2,0.1,0.3,0.1c0.1,0.1,0.2,0.2,0.4,0.3c0.2,0,0.2,0.2,0.4,0.3c0.1,0,0.2,0.1,0.3,0.1c0.1,0.1,0.2,0.2,0.4,0.3
	c0.2,0.1,0.2,0.2,0.4,0.3c0.1,0,0.2,0,0.3,0c0.1,0.1,0.2,0.1,0.4,0.1c0.1-0.1,0.2-0.2,0.3-0.3c0.1,0.1,5.5,1.9,5.8,2.2
	c0,0.1,0,0.3,0,0.4c0.1,0,0.2,0,0.4,0.1c0,0,0.1,0.1,0.1,0.1c0.1,0,0.3,0,0.4,0c0,0,0-0.1,0.1-0.1c0.3-0.4,2.6-1.6,2.6-1.9
	c0-0.1,0-0.2,0-0.3c-0.1-0.2-0.3-0.2-0.4-0.3c-0.2,0-4.6-1.2-4.8-1.2c0,0-0.1-0.1-0.1-0.1c0,0-0.1,0.1-0.1,0.1c-0.1,0-0.2,0-0.3,0
	c0,0-0.1,0.1-0.1,0.1c-0.2,0-0.4,0-0.6,0c-0.1-0.1-0.3-0.1-0.4-0.2c-0.1-0.1-0.2-0.2-0.2-0.4c0-0.2,0-0.4,0-0.6c0,0,0.1-0.1,0.1-0.1
	c0-0.1,0-0.2,0-0.2c0.1-0.1,0.1-0.3,0.2-0.4c0.1-0.1,0.2-0.3,0.3-0.3c0.2,0,0.2-0.2,0.4-0.3c0.1,0,0.2,0,0.3,0c0,0,0.1,0.1,0.1,0.1
	c0.2,0.2,0.5,0.3,0.7,0.5c0.1,0.1,4.4,1.3,4.4,1.3c0.1-0.4,0.7-2.9,1.1-2.7c-0.1-0.1-0.3-0.1-0.4-0.2c0,0,0,0-0.1,0
	c0,0-0.1-0.1-0.1-0.1c-0.1-0.1-0.2-0.2-0.4-0.4c0-0.1,0-0.2,0-0.3c0,0-0.1-0.1-0.1-0.1c0-0.1,0-0.3,0-0.4c-0.1-0.1-0.2-0.1-0.3-0.2
	c0.1-0.2,0.2-0.3,0.3-0.6c0-0.1,0-0.2,0-0.3c0-0.1,0.1-0.1,0.1-0.2c0-0.2,0-0.4,0-0.6c0,0,0.1-0.1,0.1-0.1c0.1-0.1,0-0.3,0-0.4
	c0.2-0.2,0.5-0.3,0.7-0.5c0.3,0,0.6,0,0.9,0c0,0,0-0.1,0.1-0.1c0,0,0-0.1,0-0.1c0.1,0,0.1,0,0.2,0c0,0.1,0,0.3,0.1,0.4
	c0.1,0,0.3-0.1,0.4-0.1c0.1,0.1,0.1,0.1,0.2,0.1c0.1,0,0.2,0,0.3,0c0.1,0.1,0.2,0.2,0.3,0.3c0,0,0.1,0,0.1,0
	c0.1,0.1,0.2,0.2,0.4,0.4c0.1,0.1,0.3,0,0.4,0.1c0.1,0.1,0.2,0.1,0.3,0.2c0.2,0,0.3,0.1,0.3,0.2c0,0.1,0.1,0.2,0.2,0.3
	c0.2,0,0.5,0,0.8,0c0.1,0.1,0.2,0.2,0.3,0.5c0,0,0.1,0.1-0.1,0.2c-0.1,0.1,0,0.2-0.1,0.3c-0.2,0.4-0.6,0.4-1.1,0.7
	c0,0-0.1,0.1-0.2,0.2c0,0.1,0,0.2,0,0.2c0,0-0.1,0.1-0.1,0.1c0,0,0,0.1,0,0.1c-0.2,0.2-0.3,0.3-0.5,0.5c-0.1,0-0.1-0.1-0.2-0.1
	c-0.1,0-0.1,0-0.2,0.1c0.6,0.8,5.7,3.4,4.2,4.9c0,0-0.1,0.1-0.1,0.1c0,0.1,0,0.2,0,0.4c0,0,0.1,0.1,0.1,0.1c0.1,0.1,1.6,0.6,1.7,0.6
	c0.1,0,0.2,0,0.3,0c0,0,0.1,0.1,0.1,0.1c0.3,0,0.5,0,0.8,0c0.2-0.1,0-0.2-0.1-0.3c0-0.1,0-0.3,0-0.4c0,0-0.1-0.1-0.1-0.1
	c0-0.1,0-0.2,0-0.3c0.1-0.1,0.1-0.1,0.2-0.2c0.1,0.1,0.2,0.1,0.4,0.2c0.2,0.2,0.4,0.4,0.5,0.5c0.2,0.1,0.3,0.1,0.4,0.2
	c0.3,0,0.6,0,0.8,0c0.1-0.1,0.2-0.1,0.4-0.2c0.3-0.3,0.6-0.6,0.9-0.9c0.6-0.6-0.1-3.1-0.1-3.8c0-0.8,0.3-1.8,0.6-2.5
	c0.2-0.4,0.7-0.6,0.7-1.1c0-0.5-0.8-1.2-1-1.5c-1-1.4-2-2.8-3.1-4.1c-0.1,0-0.2,0-0.3,0c-0.1-0.1-0.1-0.2-0.2-0.2c0,0,0-0.1-0.1-0.2
	c-0.3-0.2-0.4-0.6-0.6-0.8c0-0.1-0.1-0.2-0.1-0.2c0-0.1-0.1-0.1-0.2-0.2c0-0.1,0-0.3-0.1-0.4c0-0.1,0-0.2,0-0.3c0,0-0.1-0.1-0.1-0.1
	c0-0.1,0.1-0.2,0.1-0.3c-0.1-0.2,0.1-0.3,0.1-0.5c0.1-0.1,0.2-0.2,0.3-0.3c0.1,0,0.2-0.1,0.2-0.2c0.1-0.1,0.3,0,0.4-0.1
	c0.2,0,0.3,0,0.5,0c0.1,0,0.1,0.2,0.3,0.1c0,0.2,0,0.2,0,0.3c0.4,0.4,0.8,0.8,1.2,1.2c0,0.3,0.2,0.3,0.3,0.5
	c0.1,0.1,0.2,0.2,0.2,0.4c0,0.1,0,0.3,0,0.5c0,0.1,1,1.5,1.1,1.7c0,0,0.1,0,0.1,0c0,0,0.2,0.1,0.3,0.1c0.1-0.2,0.2-0.4,0.4-0.4
	c0.1-0.2,0.3-0.2,0.3-0.5c0.1-0.2,0.3-0.3,0.4-0.5c0.1-0.2,0.2-0.3,0.4-0.4c0-0.1,0-0.2,0-0.2c0.1-0.1,0.2-0.2,0.3-0.3
	c0.4,0,0.7,0,1.1,0c0,0,0.1,0.1,0.1,0.1c0.1,0,0.2,0,0.3,0c0,0,0.1,0.1,0.1,0.1c0.2,0,0.3,0,0.5,0c0.1,0,0.1,0.1,0.1,0.1
	c0.4,0.2,0.6,0.5,0.9,0.8c0,0,0,0.1,0,0.1c0.1,0.1,0.2,0.2,0.3,0.3c0.2,0,0.3,0.2,0.4,0.3c0.1,0.1,0.2,0.2,0.3,0.3
	c0,0.2,0,0.3,0,0.4c0,0.1-0.1,0.1-0.1,0.1c0,0.1,0,0.2,0,0.4c0,0-0.1,0.1-0.1,0.2c0,0.3,0,0.6,0,0.9c0,0,0.2,0.1,0.1,0.2
	c0,0-0.1,0.1-0.1,0.2c0,0.2,0,0.4,0,0.7c-0.1,0-0.2,0-0.2,0c0-0.1,0-0.1,0-0.2c-0.1-0.1-0.2-0.2-0.3-0.3c-0.2,0.2-0.3,0.3-0.5,0.5
	c0,0.1-0.1,0.2-0.1,0.3c0,0.1,0,0.3,0,0.4c0,0-0.1,0.1-0.1,0.1c-0.7,0.7,1.9,2.1,2.1,2.8c0.3,1-0.2,2,0.3,3.1
	c0.3,0.6,0.7,1.1,1.1,1.6c0.5,0.7,2.7,2.9,2.7,3.8c0,0.2,0,0.4,0,0.5c0,0.2,0.5,0.4,0.7,0.5c0.2-1,0.9-1.9,1.2-2.9
	c0.5-1.4,1.4-2.5,2-3.7c0.1-0.1,0.1-0.2,0.2-0.4c0,0,0-0.1,0-0.2c-0.1-0.1-0.1-0.1-0.2-0.2c-0.3,0-0.7,0-1,0
	c-0.1-0.2-0.3-0.3-0.5-0.5c0,0,0-0.1,0-0.2c0,0,0.1-0.1,0.1-0.1c0-0.1,0-0.2,0-0.3c0,0-0.1-0.1-0.1-0.1c0-0.2,0-0.4,0-0.5
	c-0.1-0.1-0.2-0.2-0.3-0.3c0-0.2,0-0.3,0-0.5c0-0.1,0.3-0.2,0.3-0.4c0.2-0.1,0.1-0.3,0.3-0.4c0-0.2,0-0.5,0-0.7c0,0,0.1-0.1,0.1-0.1
	c0-0.2,0-0.4,0-0.7c0.1-0.1,0.1-0.1,0.1-0.1c0-0.3,0-0.6,0-0.9c0.3-0.3,0.5-0.5,0.8-0.8c0.2,0,0.3-0.1,0.5-0.2
	c0.4-0.2,0.4-0.2,0.8-0.2c0,0,0.1-0.1,0.1-0.1c0.5,0,0.9,0,1.3,0c0,0,0.1,0.1,0.1,0.1c0.1,0,0.3,0,0.4,0c0.1,0.1,0.1,0.2,0.3,0.1
	c0.3,0.3,0.7,0.7,0.9,0.9c0.1,0.1,0.1,0.2,0.2,0.4c0,0,0,0.1,0,0.2c0,0,0.1,0.1,0.1,0.1c0,0.1,0,0.2,0,0.3c0,0.1,0.1,0.1,0.1,0.2
	c0,0.3,0,0.5,0,0.8c0,0,0.1,0.1,0.1,0.1c0,0.2,0,0.5,0,0.8c0,0.1,0.1,0.1,0.1,0.2c0,0.1,0,0.3,0,0.4c0,0,0.1,0.1,0.1,0.1
	c0,0.1,0,0.3,0,0.4c0,0.1,0.1,0.1,0.1,0.1c0,0.1,0,0.2,0,0.3c0,0,0.1,0.1,0.1,0.1c0.1,0.1,0,0.3,0,0.4c0,0,0.1,0.1,0.1,0.1
	c0,0.1,0,0.2,0,0.3c0,0.1,0.1,0.2,0.1,0.4c0,0.1,0.1,0.2,0.2,0.3c0.1,0.1,0.1,0.2,0.2,0.3c0.1,0.2,0.3,0.3,0.2,0.6
	c0.1,0.1,0.2,0.1,0.2,0.2c0.1,0.2,0.2,0.4,0.4,0.8c0,0,0.2,0.2,0.3,0.3c0.1,0.1,0.1,0.3,0.2,0.4c0.1,0.1,0.2,0.2,0.3,0.3
	c0,0.1,0,0.2,0,0.2c0.1,0.1,0.2,0.2,0.3,0.3c0,0.1,0,0.1,0,0.2c0,0,0,0.1,0.1,0.1c0.1,0.2,0.3,0.2,0.4,0.4c0.1,0.2,0.3,0.3,0.4,0.4
	c0,0.1,0,0.1,0,0.2c0.1,0.1,0.2,0.2,0.3,0.3c0.2,0.4,0.4,0.8,0.6,1.2c0.1,0.1,0.3,0.3,0.5,0.5c0,0.1,0,0.2,0,0.3
	c0.1,0.2,0.3,0.2,0.4,0.3c0.1,0.2,0.3,0.1,0.4,0.3c0.1,0.1,0.3,0.1,0.4,0.2c0.1,0.1,0.2,0.2,0.4,0.4c0,0.1,0,0.2,0,0.2
	c0.1,0.1,0.3,0.3,0.4,0.4c0,0.1,0,0.2,0,0.2c0.1,0.1,0.3,0.3,0.4,0.4c0,0.2,0.3,0.2,0.3,0.5c0.1,0.1,0.3,0.3,0.4,0.4
	c0,0.1,0,0.1-0.1,0.2c-0.2-0.1-0.5-0.2-0.8-0.4c-0.2-0.2-0.4-0.4-0.7-0.7c0,0-0.1,0-0.1,0c0,0.1,0,0.2,0,0.2
	c0.1,0.1,0.1,0.3,0.3,0.4c0,0,0,0.2-0.1,0.2c0,0-0.1,0-0.1,0c-0.3-0.3-0.5-0.5-0.8-0.8c-0.1,0-0.1,0-0.2,0c0-0.1-0.1-0.2-0.1-0.3
	c-0.1-0.1,0-0.3-0.1-0.4c-0.1-0.1-0.1-0.2-0.1-0.3c-0.1-0.2-0.2-0.4-0.3-0.7c-0.1-0.1-0.1-0.3-0.3-0.4c-0.2-0.1-0.2-0.3-0.3-0.4
	c-0.2-0.2-0.2-0.4-0.5-0.6c-0.2-0.1-0.3-0.3-0.5-0.5c0-0.1,0-0.2,0-0.2c-0.1-0.1-0.1-0.3-0.2-0.4c-0.1-0.1-0.1-0.2-0.2-0.3
	c-0.1-0.1,0-0.2-0.1-0.3c-0.2-0.2-0.2-0.5-0.5-0.6c0-0.1,0-0.2,0-0.2c0,0,0-0.1,0-0.1c-0.1-0.1-0.2-0.2-0.2-0.3
	c0-0.1-0.1-0.3-0.2-0.4c-0.1-0.1-0.1-0.3-0.2-0.3c-0.1-0.1-0.1-0.2-0.2-0.3c-0.1-0.2-0.3-0.4-0.2-0.6c-0.1-0.1-0.1-0.3-0.3-0.5
	c-0.2-0.2-0.3-0.5-0.5-0.7c0,0,0-0.1,0-0.1c-0.3-0.1-0.3-0.2-0.5-0.5c0,0,0,0-0.1,0c-0.1,0-0.2,0-0.3,0c0,0-0.1,0.1-0.1,0.1
	c0,0.2-0.1,0.3,0.1,0.5c0.1,0.1,0,0.2,0,0.3c0.1,0,0.2,0.1,0.2,0.1c0,0.1,0,0.2,0,0.3c1.4,1,2,4.7,2.5,6.3c0.3,0.9,0.5,2.6-0.3,3.4
	c-0.7,0.7-2-0.2-2.6,0.7c-0.5,0.8,0.5,1.8,0.9,2.5c0.6,1.2,0.5,2.4,0.5,3.7c0,0,0.1,0.1,0.1,0.1c0,0.3,0,0.6,0,0.9
	c0,0,0.1,0.1,0.1,0.1c0,0,0,0,0,0.1c0,0.4,0,0.9,0,1.3c0.1,0.2,0.1,0.2,0.1,0.3c0.2,0.2,0.4,0.4,0.5,0.5c0,0.1,0,0.2,0,0.2
	c0.3,0.2,0.4,0.6,0.7,0.9c0.1,0.1,0.1,0.2,0.2,0.3c0.2,0.1,0.1,0.3,0.3,0.5c0.1,0.1,0.3,0.2,0.4,0.4c0.1,0.1,0.3,0.3,0.3,0.5
	c0,0.2,0,0.3,0,0.6c-0.1,0.1-0.2,0.2-0.4,0.3c0,0-0.1,0-0.1,0c-0.2-0.1-0.3-0.1-0.4-0.2c-0.2-0.2-0.4-0.4-0.6-0.5
	c-0.1-0.2-0.1-0.3-0.2-0.4c0-0.1,0-0.2,0-0.3c-0.1-0.1-0.1-0.1-0.2-0.2c-0.1,0-0.1,0-0.2,0c0.1,0.1,0.1,0.1,0.1,0.2c0,0.3,0,0.7,0,1
	c0.8,0.9-0.1,1.2,1.6,0.9c1-0.2,1.9-0.7,3-0.4c1,0.3,1.9,0.9,2.9,1.1c1.1,0.3,2.3,0.1,3.5,0.1c0.1-0.1,0.2-0.2,0.2-0.3
	c0-0.1,0.1-0.2,0.2-0.3c0.1-0.1,0.2-0.2,0.2-0.4c0-0.1,0.2-0.2,0.2-0.3c0,0-0.2-0.3-0.3-0.4c0.9-0.6,0.8-1.2,0.8-2.3
	c0-0.8,0-1.6-0.1-2.4c-0.1-1.3-0.2-2.7-0.4-4c0-0.2-0.2-2.3-0.9-1.5c0,0-0.1,0.1-0.1,0.1c-0.1,0-0.3,0-0.4,0
	c-0.1,0.1-0.1,0.1-0.1,0.1c-0.2,0-0.4,0-0.5,0c-0.1,0.2-0.2,0.1-0.4,0.1c-0.1,0.1-0.2,0.2-0.4,0.3c-0.1,0.1-0.2,0.1-0.4,0.2
	c-0.1,0.1-0.2,0.2-0.4,0.4c0,0.2-0.2,0.3-0.2,0.4c0,0,0,0,0,0c-0.3,0-0.3,0.3-0.5,0.5c0,0,0,0.1,0,0.2c-0.1,0-0.1,0-0.2,0
	c0-0.1-0.1-0.2-0.1-0.3c0,0-0.1,0.1-0.1,0.1c-0.1,0-0.2,0-0.4,0c-0.1-0.1-0.2-0.1-0.3-0.2c0-0.2,0-0.4,0-0.7
	c0.2-0.4,0.4-0.8,0.6-1.2c0.1-0.2,0.2-0.4,0.3-0.5c0.1-0.2,0.1-0.3,0.3-0.5c0,0,0-0.2,0.1-0.2c0.1-0.1,0.3-0.3,0.3-0.4
	c0.1-0.2,0.4-0.4,0.7-0.4c0.1,0,0.1-0.1,0.3-0.1c0.1,0,0.2,0,0.3,0c0,0,0.1-0.1,0.1-0.1c0.5,0,1,0,1.5,0c0.2-0.1,0.4-0.2,0.6-0.3
	c0.2-0.1,0.2-0.3,0.5-0.3c0.1-0.1,0-0.3,0-0.4c0-0.1,0.1-0.1,0.1-0.2c0-0.1,0-0.2,0-0.4c0,0-0.1-0.1-0.1-0.1
	c-0.1-0.1-0.2-0.1-0.3-0.2c-0.1-0.1-0.1-0.3-0.2-0.3c-0.2-0.1-0.2-0.4-0.4-0.5c-0.2-0.1-0.3-0.3-0.5-0.4c0-0.1,0-0.2,0-0.3
	c-0.2-0.1-0.1-0.3-0.2-0.5c-0.1-0.1-0.1-0.3-0.1-0.5c0-0.2,0-0.3,0-0.5c-0.1-0.1-0.1-0.1-0.1-0.1c0-0.1,0-0.3,0-0.4
	c0,0,0.1-0.1,0.1-0.1c0-0.2,0-0.4,0-0.7c0,0-0.1-0.1-0.1-0.1c0-0.1,0.1-0.2,0.1-0.3c0-0.1,0-0.2-0.1-0.3c-0.2-0.2-0.2-0.4-0.3-0.6
	c-0.1-0.2-0.2-0.4-0.3-0.6c-0.1-0.2-0.2-0.4-0.3-0.6c-0.2-0.1,0-0.4-0.2-0.5c0-0.1,0-0.2-0.1-0.3c0-0.1-0.1-0.1-0.1-0.2
	c-0.2-0.2-0.3-0.3-0.5-0.5c0,0-0.1,0-0.1,0c-0.1-0.1-0.3-0.2-0.3-0.4c0-0.2-10.8-24.4-10.8-24.6c-0.4-0.3-0.5-0.8-0.8-1.2
	c0-0.2,0-0.3-0.1-0.4c0-0.2-0.1-0.2-0.2-0.4c0-0.1-0.1-0.2-0.2-0.4c0-0.1,0-0.3,0-0.5c-0.1-0.2-0.2-0.3-0.3-0.5c0-0.1,0-0.1,0-0.2
	c0,0-0.1-0.1-0.1-0.1c-0.1-0.2,0-0.4,0-0.5C49,9.3,49,9.2,49.1,9.1c0,0,0.1,0,0.1,0c0.2-0.3,0.6-0.4,0.9-0.7c0.2,0,0.5,0,0.8,0
	c0,0,0.1,0.1,0.1,0.1c0,0,0.1,0,0.1,0c0.1,0.2,0.3,0.2,0.3,0.5c0,0.1,0.3,0.2,0.3,0.4c0.1,0.1,0.3,0.3,0.3,0.5c0,0.1,0,0.3,0.2,0.3
	c0.1,0.1,0.1,0.2,0.2,0.3c0.2,0.3,0.3,0.6,0.5,0.9c0,0.1,0,0.2,0,0.3c0,0,0.1,0.1,0.1,0.1c0,0.2,0,0.4,0,0.7c0,0,0.1,0.1,0.1,0.1
	c0,0.1,0,0.2,0,0.3c0.1,0.1,0.1,0.3,0.2,0.4c0.1,0.1,10,24.3,10,24.3c-0.1,0.1,0,0.4-0.2,0.4c0,0.1,0,0.3,0,0.4
	c0.1,0.1,0.2,0.2,0.2,0.2c0.1,0.2,0.1,0.2,0.2,0.4c0,0.1,0,0.4,0,0.5c0,0.1,0,0.1,0,0.1c0.1,0.1,0.2,0.3,0.2,0.5c0,0,0,0.1,0,0.2
	c0.1,0.1,0.3,0.2,0.4,0.3c0,0,0,0-0.1,0c0,0.1,0.1,0.1,0.1,0.3c0,0.1,0,0.2,0,0.3c0.4,0.4,0.7,0.7,1.1,1.1c0.2,0,0.5,0,0.8,0
	c1.1,0,2.5-4.6,1.7-5.4c-0.1,0-0.3,0-0.4,0c-0.1,0-0.1-0.1-0.2-0.1c-0.2,0.1-0.3-0.1-0.5-0.1c0,0,0,0,0,0c0-0.2-0.3-0.3-0.3-0.5
	c0,0-0.1-0.1-0.1-0.1c0-0.8,0-1.5,0-2.3c0,0,0,0,0-0.1c0,0,0.1-0.1,0.1-0.1c0,0,0-0.1,0-0.1c0-0.2,0-0.4,0-0.6
	c-0.1-0.1-0.3-0.3-0.4-0.4c0-0.1,0-0.3,0-0.4c0.1-0.1,0.3-0.2,0.3-0.3c0.1-0.2,0.1-0.3,0.3-0.4c0-0.3,0-0.5,0-0.8
	c0.1-0.3,0.3-0.5,0.4-0.8c0-0.1,0-0.2,0-0.3c0,0,0.1-0.1,0.1-0.1c0.1-0.1,0-0.3,0-0.4c0,0,0.1-0.1,0.1-0.2c0.1-0.1,0-0.3-0.1-0.4
	c0.1-0.2-0.2-0.3-0.1-0.5c0.1-0.1,0.3-0.2,0.4-0.3c0-0.4,0-0.7,0-1.1c0.1-0.1,0.1-0.1,0.2-0.2c0,0,0.1,0,0.1,0
	c0.2-0.2,0.3-0.3,0.5-0.5c0-0.1,0-0.1,0-0.2c0.1-0.1,0.1-0.3,0.2-0.4c0.1,0,0.2,0,0.3,0c0,0,0.1-0.1,0.1-0.1c0.3,0,0.7,0,1,0
	c0,0,0.1-0.1,0.1-0.1c0.1-0.1,0.3,0,0.4-0.2c0.2,0,0.3,0,0.5,0c0,0,0.1,0.1,0.2,0.1c0.1,0,0.1-0.1,0.2-0.1c0.1,0,0.2,0,0.4,0
	c0,0,0.1,0.1,0.1,0.1c0.1,0,0.3,0,0.4,0c0,0,0.1-0.1,0.1-0.1c0.2,0,0.4,0,0.6,0c0,0.1,0,0.1,0.1,0.2c0.1,0,0.2,0.1,0.3,0.2
	c0.1,0,0.2,0,0.3,0c0.2,0.2,0.5,0.5,0.6,0.6c0.2,0,0.4,0,0.5,0c0.1,0.2,0.3,0,0.4,0.1c0.1,0.2,0.3,0.1,0.4,0.1c0,0.1,0,0.2,0,0.3
	c0.1,0.1,0.1,0.1,0.2,0.2c0.1,0,0.2,0,0.3,0c0.1,0.1,0,0.3,0.1,0.4c0,0.1,0,0.3,0,0.5c0.1,0,0.1,0,0.2,0c0.1,0.2,0.2,0.4,0.3,0.6
	c0,0.2,0,0.6,0,0.9c0,0.1,0.1,0.1,0.1,0.1c0,0.1,0,0.2,0,0.3c0,0-0.1,0.1-0.1,0.1c0,0.1,0,0.2,0,0.3c0,0.1,0,0.2,0,0.3
	c0,0.1-0.2,0.1-0.1,0.3c0,0.1,0,0.2-0.1,0.3c0,0.2,0,0.3,0,0.5c0,0.1-0.1,0.1-0.1,0.1c0,0.1,0,0.3,0,0.4c0,0-0.1,0.1-0.1,0.1
	c0,0.1,0,0.1,0,0.2c-0.1,0.1-0.1,0.4-0.3,0.5c-0.2,0.1-0.1,0.4-0.3,0.5c-0.4,1.2-0.7,0.8-0.1,1.8c0.3,0.5,0.9,0.8,1.2,1.4
	c0.7,1.1,1,2.4,1.3,3.7c0.4,1.7,2.8,5.5,0.9,7.1c-0.1,0.1-0.3,0.1-0.4,0.3c-0.3,0-0.5,0-0.8,0c0,0,0,0,0,0.1c0,0,0,0,0,0.1
	c0,0.6,0,1.2,0,1.8c0,0-0.1,0.1-0.1,0.1c0,0.1,0,0.3,0,0.4c0,0-0.1,0.1-0.1,0.1c0,3.2,0.4,3.7,1.5,6.8c0.5,1.5,0.5,5.2,0.3,6.5
	C79.2,63.6,79.1,64,79,64.5z M24.1,45.7c0.1,0,0.3,0,0.4,0.1c0.2,0,4.5,1.6,4.7,1.6c0.1,0,0.1,0.1,0.2,0.1c0.1,0,0.2,0,0.3,0
	c0,0,0.1,0.1,0.1,0.1c0.1,0,0.3,0,0.4,0c0.1-0.1,0.1-0.2,0.2-0.2c0.1-0.2,0.2-0.5,0.4-0.7c0.1-0.2,0.2-0.3,0.3-0.4
	c0.1-0.1,0.1-0.3,0.2-0.4c0,0,0,0,0,0c0.2-0.1,0.2-0.4,0.4-0.5c0.1-0.1,0.2-0.4,0.3-0.5c0,0,0-0.1,0-0.1c0-0.3,0-0.5,0-0.8
	c0,0-0.1-0.1-0.1-0.1c0-0.1,0-0.2,0-0.3c-0.1,0-0.2,0-0.3,0c-0.1,0-0.1-0.1-0.2-0.1c-0.2,0-0.3,0-0.5,0c-0.1-0.1-0.1-0.1-0.2-0.1
	c-0.1,0-0.3,0-0.4,0c0,0-0.1-0.1-0.1-0.1c-0.1,0-0.3,0-0.4,0c0,0-0.1,0.1-0.1,0.1c-0.1,0-0.2,0-0.3,0c-0.1,0.1-0.2,0.3-0.4,0.4
	c-0.2,0-0.3,0.1-0.4,0.1c-0.1-0.1-0.3-0.1-0.4-0.2c-0.2-0.2-0.3-0.4-0.6-0.5c-0.2-0.1-0.4-0.3-0.6-0.5c0,0,0-0.1,0-0.1
	c0-0.1-0.1-0.1-0.1-0.1c0,0-1.7-0.6-1.8-0.6c-0.1,0-0.3,0-0.4,0c0,0-0.1-0.1-0.1-0.1c-0.1,0-0.2,0-0.3,0c-0.1,0.2-0.1,0.4-0.2,0.5
	c-0.2,0.2-0.2,0.4-0.4,0.5c0,0.3,0,0.6,0,0.9c0,0-0.1,0.1-0.1,0.1c0,0.2-0.1,0.4,0.1,0.5c-0.1,0.2,0.2,0.4,0.1,0.7
	c0,0,0.1,0.1,0.1,0.1c0,0.2,0,0.3,0,0.5C24,45.5,24,45.6,24.1,45.7z M39,51.2c0,0.4,0,0.9,0,1.3c0,0,0.1,0.1,0.1,0.1
	c0,0.1,0.1,0.2,0.1,0.2c0.2,0,0.5,0,0.6,0c0.2,0.1,0.3,0.2,0.5,0.3c0.1,0,0.3,0,0.5,0c0.1,0,0.1,0.1,0.1,0.1c0.3,0,0.5,0,0.8,0
	c0,0,0.1,0.1,0.1,0.1c1.4,1.4,2-1.9,2-2.7c-0.1-0.9-0.4-1.9-1.4-2.1c-0.7-0.1-1.8,0.4-1.7,1.1c-0.1-0.1-0.3-0.1-0.4-0.1
	c-0.1,0.1-0.2,0.3-0.3,0.4c-0.2,0-0.4,0-0.6,0c0-0.1-0.1-0.2-0.1-0.3c-0.3,0-0.5,0-0.7,0c-0.1,0.1-0.1,0.1-0.2,0.2
	c0.1,0.1,0.1,0.2,0.1,0.3c0,0.1,0.1,0.3,0.2,0.4c0.1,0.1,0,0.3,0.1,0.4C38.9,50.9,38.9,51.1,39,51.2z M29,49c-0.1,0-4.5-1.7-4.7-1.8
	c0,0-0.1,0-0.2,0c0,0.1,0,0.2,0,0.3c0,0,0.1,0.1,0.1,0.1c0,0.1,0,0.2,0,0.3c0.1,0.3,0.4,0.6,0.4,0.9c0.1,0.1,0.3,0.2,0.2,0.4
	c0.2,0.2,0.3,0.5,0.5,0.7c0.1,0.1,0.2,0.3,0.3,0.3c0.2,0.1,0.3,0.2,0.4,0.3c0.1,0.1,0.2,0.3,0.3,0.3c0.2,0.1,0.3,0.3,0.5,0.3
	c0.2,0,0.3,0.2,0.4,0.3c0,0.2,0.2,0.3,0.4,0.5c0.1,0.2,0.3,0.3,0.4,0.4c0.1,0.1,0.1,0.2,0.1,0.2c0.1,0,0.1,0,0.1,0
	c0.1-0.2,0.2-0.4,0.3-0.6c0,0,0-0.1,0-0.2c0,0,0.1-0.1,0.1-0.1c0-0.1,0-0.2,0-0.3C29,51.2,29,51.1,29,51c0-0.1,0.1-0.3,0.2-0.4
	c0.1-0.1,0-0.3,0.1-0.4c0.1,0,0.1-0.2,0.1-0.2c0.1-0.1,0.1-0.1,0.1-0.2c-0.1-0.1-0.3-0.3-0.5-0.4C29,49.3,29,49.2,29,49z M37.3,40.3
	c0,0.7,0,1.5,0,2.2c0,0,0.1,0.1,0.1,0.1c0,0.2,0,0.4,0,0.6c0,0.1,0.1,0.1,0.1,0.1c0,0.2,0,0.3,0,0.5c0.1,0.1,0.2,0.2,0.3,0.3
	c0.1,0,0.3,0,0.4,0c0.1,0,0.1,0.1,0.1,0.1c0.1,0,0.2,0,0.4,0.1c0.1,0.1,0.3,0,0.4,0.1c0.1,0,0.1,0.1,0.2,0.1c0.2,0,0.3,0,0.5,0
	c0.2,0.1,0.3,0.2,0.5,0.3c0.1,0,0.3,0,0.5,0c0.1,0.1,0.1,0.1,0.1,0.1c0.1,0,0.3,0,0.4,0c0,0,0.1,0.1,0.1,0.1c0.3,0,0.5,0,0.8,0
	c0,0,0,0,0,0c0-0.1,0-0.2,0-0.3c-0.1-0.1-0.2-0.2-0.2-0.2c0-0.1,0-0.2,0-0.3c-0.2-0.2-0.3-0.3-0.5-0.5c-0.1,0-0.3,0-0.4,0
	c-0.1-0.1-2.7-3.4-2.7-3.6c0,0,0-0.1-0.1-0.1c-0.2-0.2-0.3-0.3-0.5-0.5c0,0-0.1,0-0.1,0c-0.1,0-0.2,0.2-0.3,0.2
	C37.4,40,37.5,40.2,37.3,40.3z M39.8,46.9c0-0.1,0-0.2,0-0.2c-0.1-0.1-0.2-0.3-0.3-0.5c0,0,0-0.1,0-0.1c-0.2,0-0.4,0-0.6,0
	c0,0-0.1-0.1-0.1-0.1c-0.2,0-0.5,0-0.7,0c-0.2,0.2-0.3,0.3-0.4,0.4c0,0.1,0,0.3,0,0.5C38.4,46.9,39.1,46.9,39.8,46.9z M16.3,42.8
	c0.3-0.1,0.5,0,0.6,0.1c0.2,0.1,0.3,0.1,0.5,0.2c0,0,0.1,0,0.2,0c0,0,0-0.1,0-0.1c0-0.2,0-0.3,0-0.5c-0.1-0.1-0.1-0.1-0.2-0.2
	c-0.1,0-0.3,0-0.4,0c0,0-0.1,0.1-0.1,0.1c-0.1,0-0.2,0-0.3,0C16.5,42.5,16.5,42.6,16.3,42.8z M41,46.8c0.1,0.1,0.1,0.1,0.2,0.2
	c0.1-0.1,0.2,0.1,0.3-0.1c0-0.1,0-0.2,0-0.3c-0.1-0.1-0.2-0.1-0.3-0.2c-0.1-0.1-0.2,0-0.2,0.1C41,46.7,41,46.8,41,46.8z M37.7,48.6
	c0.1,0.1,0.2,0.1,0.3,0c0-0.1,0-0.2,0-0.3c-0.1-0.1-0.2-0.2-0.3-0.3c0,0,0,0,0,0c-0.1,0.1,0,0.2,0,0.3c0,0,0.1,0.1,0.1,0.1
	C37.7,48.5,37.7,48.5,37.7,48.6z"/>
</svg>
