<?xml version="1.0" encoding="utf-8"?>
<!-- Generator: Adobe Illustrator 28.6.0, SVG Export Plug-In . SVG Version: 9.03 Build 54939)  -->
<svg version="1.0" id="Layer_1" xmlns="http://www.w3.org/2000/svg" xmlns:xlink="http://www.w3.org/1999/xlink" x="0px" y="0px"
	 viewBox="0 0 147.6 134" enable-background="new 0 0 147.6 134" xml:space="preserve">
<path fill="#EF3B4F" d="M117.3,101.9c0.7,1.9,3.7-0.4,4.4-1.3c0.9-1.4,1.8-3.1,2.6-4.6c1.5-3.1,1.2-5.6,0.5-8.8
	c-0.3-1.3,0.6-2,0.3-3.2c-0.3-1.3-1.9-1.8-2.8-2.5c-0.8-0.7-1.3-1.7-2.2-2.2c-0.9-0.5-1.7-1.1-2.7-1.5c-1.1-0.5-1.7-0.6-2.5-1.5
	c-0.8-0.9-1.1-1.5-2.1-2.1c-2-1.1-4.8-0.6-7-0.5c-1.2,0.1-2.4,0-3.6,0.3c-2.5,0.6-2.8,2.1-4.9-0.1c-0.7-0.3-1.1-0.5-1.8-0.4
	c-0.4,0-0.5-0.1-0.8-0.3c-0.3-0.2,0-0.3,0.1-0.4c0.1-0.3-1.1-0.2-1.3-0.2c-0.2-0.3-0.4-0.4-0.7-0.3c-0.3,0.1-1.2,0.6-1.4,0.9
	c-0.4,0-0.8-0.1-1.1,0.2c-0.3,0.3-0.4,0.1-0.8-0.1c-0.3,0.4-0.7,1.2-1.1,1.2c-0.3,0.2-0.5,0.5-0.8,0.8c-0.3,0.2-0.5,0.2-0.7,0.5
	c-0.5,0.5-0.9,0.9-1.2,1.5c-0.3,0.5-0.7,0.8-0.8,1.5c-0.1,0.4-0.3,0.5-0.3,1v1.2c0,0.5,0.1,1.4,0.4,1.8c0.3,0.4,0.8,1,0.8,1.4
	c0.6,0.6,1.2,1.2,1.9,1.9c0.7,0.7,1,0.7,0.3,1.5c0.7,0.7,1.5,0.5,2.5,0.5c0,0.4,0,0.7,0,1.1C90,89.1,90,89.2,90,89.7
	c0.9,1.2,0.1,2.9,0.7,4.3c0.4,0.9,1.1,1.7,1.4,2.7c0.8,2.2,0.9,4.4,0.9,6.9c0,2.5,0.6,4.6,1,6.9c0.4,2.1,0.6,4.3,1.2,6.3
	c0.3,1,1.4,2.5,0.5,3.4c-0.6,0.5-2.8,0.4-3.1-0.5c-0.1-0.3,0-0.3-0.2-0.3c-0.2,0-0.4,0-0.6,0c-0.8,0-1.6,0.1-2.4,0.1
	c-6.7,0.4-13.4,0.8-20.1,1.2c-7.5,0.4-15.1,0.9-22.6,1.3c-2.1,0.1-4.2,0.2-6.3,0.3c-0.2,0-0.4,0-0.6,0c-0.2,0-0.1,0-0.3,0.2
	c-0.3,0.3-0.5,0-0.7-0.2c-0.4-0.4-0.7-0.3-1.2-0.3h-6.1c-0.4,0.5-1,0.2-1.4,0.9c-0.3,0.5-0.7,1-0.9,1.6c-0.3,0.7,0,0.6,0,1.3
	c0,0.4,0.3,0.6,0.4,1c0.2,0.4,0.2,0.6,0.2,1c0.4,0.2,0.7,0.4,1.1,0.6c0.8,0.4,1.8,0.2,2.7,0.2h2.8c0.4,0,1.2,0.2,1.6-0.1
	c0.2-0.2,0.4-0.2,0.8-0.2c0.1-0.1,0.5-0.6,0.7-0.6c0.2,0,0.3,0,0.5,0c1.9-0.1,3.8-0.2,5.7-0.3c7.3-0.5,14.6-0.9,22-1.4
	c6.9-0.4,13.7-0.9,20.6-1.3c1.3-0.1,2.6-0.2,3.9-0.2c0.4,0,1-1,1.1-1.3c0.2-0.4,1.8-0.2,2.3-0.2c0.1,0-0.3,1.2-0.5,1.4
	c0,0.8,0.2,1.7,1.1,1.7c0.6,0,1-0.1,1.5,0.3c0.2-0.1,0.5,0.1,0.7-0.1c0.1-0.3-0.1-0.5-0.3-0.6V124c0-0.5-0.1-0.8,0.3-1.1
	c0.3-0.3,0.6-0.5,0.9-0.8c0.4,0.2,0.8,0.1,1.2,0.3c0.3,0.2,0.4,0,0.6-0.2c0.2-0.1,1,0,1.2,0c-0.8,3.1,4.9,3.7,6.9,3.3
	c2.3-0.4,3.8-2.3,5.8-3.1c2-0.8,4.7-0.4,6.9-0.5c3.4-0.2,6.9-0.3,10.3-0.6c0.1,0,0.2,0,0.3,0c0,0,0.6,0,0.6,0
	c0.3-0.3,0.6-0.6,0.9-0.9c0.6-0.6,2-0.4,2.8-0.4c1.2-0.1,2.3-0.1,3.5-0.2c0.5,0,0.7-0.1,1,0.3c0.6,0.6,1-0.1,1.4,0.2
	c0.3,0.2,1.1,0.1,1.5,0.1c0.6,0,0.8,0.2,1.1-0.4c0.4-0.6,0.7-1.3,0.2-1.9c0-0.8-0.6-1.1-1.2-1.7H143c-0.6,0-0.7,0.2-1.1,0.6
	c-0.3-0.1-0.7,0.3-1.1,0.3c-0.4,0-0.8,0-1.2,0c-1.1,0-2.2,0.1-3.4,0.1c-0.6,0-1.2,0-1.8,0.1c-0.7,0-0.8-0.1-1.4-0.6
	c-0.4-0.4-0.6-0.3-1.2-0.3c-1.6,0.1-3.1,0.2-4.7,0.2c-3.7,0.2-7.5,0.4-11.2,0.6c-0.4,0-0.7,0-1.1,0c-0.3,0-0.2-0.3-0.2-0.5
	c0-0.2-0.4-0.6-0.4-0.7l1.9-1.9c0.7-0.7,2.3-2.4,3.1-0.8c0.3,0.8,0.9,0.6,1.7,0.6c0.2,0,0.1,0.6,0.1,0.7c0.3,0.3,0.6,0.6,0.8,0.8
	c0.6,0.7,1.1-0.4,1.6-0.7c0.3-0.2,0.6-0.4,0.9-0.7c0.4-0.4,0.4-0.2,0.8,0.1c0.6,0,0.8-0.1,1.2,0.3c0.3,0,0.8-0.1,1,0.1
	c0.5,0.5,1.2-0.1,1.7,0.5c2.8,0,1.5-3.5,0.6-4.9c-1.1-1.8-1.7-2.1-3.4-3.1c-1.8-1-2.6-3.3-4.5-4.2c-0.6-0.3-2.1-0.7-2.7-0.3
	c-0.1,0.1-1.4,2.9-1.6,2.7c-0.3-0.3-0.1-1.8-0.1-2.3c0.4-0.4,0.2-0.3,0.3-0.8c0.1-0.4,0.6-0.3,1-0.3c0.5,0,0.4,0,0.7-0.3h1
	c0.2-0.3,0.5-0.5,0.7-0.8c0.3-0.3,0.2-0.5,0.5-0.8c0.8-0.7,1.2-2.1,1.8-3c0.3-0.6,1.1-1.7,1.1-2.4c0-0.3,0.2-0.4,0.3-0.5v-1.3
	c0.4-0.4,0.6-0.4,0.6-0.9V91c0-0.7,0.2-1.5-0.3-2c0-0.9-0.9-2.3-0.8-2.9c0-0.1,0-0.2,0.1-0.3 M102.8,119.8c-0.9,0.2-2.1-0.3-2.8,0.4
	c-0.8,0.7-0.3-1.9-0.3-2.1c-0.1-1.4-0.8-2.7-0.7-4.3c0-2.9,0.8-5.6,1-8.5c0.1-2.3,0-4.7-0.7-6.7c-0.4-1-0.9-2-1.1-3
	c-0.2-1.2-0.1-2.7-0.1-3.9c0.2,0.1,0.5,0.5,0.7,0.5c0.2,0,0.4,0,0.7,0.1c0.5,0.5,0.4-0.3,0.9,0c0.5,0.3,0.5,0.5,1.1,0.5
	c0.3,0.2,0.5,0.5,0.8,0.8c-0.5-0.4-0.4,2-0.4,2.1c0,1.3,0,2.7,0,4c0,2.7-0.1,5.4-0.1,8.1c0,1.9-0.6,4.2-0.1,6
	c0.4,1.5,2.8,3.2,2.5,4.8C103.8,119.4,103.4,119.7,102.8,119.8z"/>
<path fill-rule="evenodd" clip-rule="evenodd" fill="#20BCBA" d="M113.5,71.1C113.5,70.9,113.6,71.2,113.5,71.1
	C113.5,70.9,113.6,71.2,113.5,71.1C113.5,70.9,113.6,71.2,113.5,71.1c0-1.4-1.5-1.5-2.4-2.3c-0.2,0-0.4,0-0.5-0.1
	c-0.9-0.1-1.8-0.3-2.7-0.4c-3.3-0.5-6.6-1.1-9.9-1.7C91,65.4,84,64.2,77,63c-0.6-0.1-1.2-0.2-1.8-0.3c-0.2,0-0.3,0-0.5-0.2
	c-0.4-0.3-1.2,0.2-1.2,0.6c0,0.7-0.7,0.6-1.1,1.1c-0.1-0.3-0.9-0.6-1.2-0.9c-0.5-0.1-0.9-0.2-1.4-0.3c-0.5-0.1-1.1-0.7-1.4-1
	c-0.3-0.3-0.6-0.6-0.9-0.9c0-0.4-0.3-0.9-0.8-1c-1-0.4-1.7-1.4-2.5-2c-0.6-1.2-1.3-2.2-2.2-3.1c-0.6-0.6-1.2-1.3-1.8-1.9
	c0-0.6-0.7-0.8-0.9-1.3c-0.3-0.6-0.6-1-1-1.5c-0.4-0.5-0.5-1.3-0.9-1.8c-1.3-1.7-2.3-3.6-3.7-5.2c-0.3-0.3-1.1-1.3-1.1-1.8
	c0-0.5-0.3-0.6-0.3-1.2c0-0.6-0.3-0.8-0.2-1.3c0.1-1.6-0.9-2.9-1.4-4.4c-0.5-1.6-0.5-3.1-0.2-4.8c0.1-0.8,0.4-1.7,0.1-2.4
	c-0.2-0.5-0.1-1.2-0.1-1.7c-0.3-0.3-0.3-0.5-0.3-0.9c0-0.7,0.3-0.2,0.7-0.6c0.2-0.2,0.1-0.5,0.3-0.6c0.4-0.3,0.5-1.1,0.6-1.5
	c0.5-0.5,0.9-0.9,1.2-1.5c0.2-0.4,0.4-0.8,0.8-1.1c0.5-0.4,0.6-0.7,0.9-1.2c0.4-0.5,0-1.5,0.9-1.5c0.4,0,0.5-0.1,0.5-0.5
	c0.1-0.3,0-0.5-0.3-0.6c0-0.3,0-0.5,0-0.8c0-0.6,0.3-0.9,0.3-1.4c0-0.6,0-1.1,0-1.7c0-0.6-0.4-1.8-0.9-2.3c0-0.6-0.3-0.8-0.3-1.4
	c-0.4-0.4-0.7-0.8-1.2-1.1c-0.7-0.4-1.6-1.3-2.5-1.3c-0.9,0-1.6-0.6-2.6-0.1c-1.1,0.5-2.3,0.9-3.2,1.7c-0.8,0.8-1,1.3-1,2.4
	c-0.2,0.3-0.5,0.7-0.6,1.1c-0.1,0.6-0.6,0.6-0.9,0.8c0.4,0.4,0.3,0.7,0.3,1.2c0.1,0.1,0.2,0.2,0.3,0.3c-0.9,1.4,0.3,2.3-1.6,3.5
	c-1.2,0.8-2.7,1.4-4.1,1.8c-2.1,0.6-4,1-6,2.1c-3.8,2.3-4.6,7-6.3,10.8c-1.2,2.6-1.6,5.2-2.4,7.9c-0.8,2.5-2.3,4.9-2.9,7.4
	c-0.5,2-2,3.6-2.6,5.5c-0.7,2.4,0.4,4.1,0.6,6.3c0.2,2.3,0,4.8-0.4,6.9c-0.3,1.6-0.3,3.3-0.6,4.9c-0.4,1.6-0.2,2.3-0.2,3.9
	c0,0.5,0.1,0.6-0.3,0.9c0,0.4,0,0.9,0,1.3c-0.1,2.9-1.1,5.8-2.3,8.3c-0.6,1.2-1.3,2.4-2.1,3.4c-0.3,0.4-0.7,1.2-0.8,1.7
	c0,0.3-0.3,0.5-0.4,0.7c-0.7,1.1-0.9,2.6-1.1,3.8c-0.4,2.1-0.8,4.2-1.1,6.3c-0.3,2-0.6,4-0.8,6.1c-0.1,0.7-0.1,1.4-0.2,2.1
	c-0.1,0.8,0,1.7-1.1,1.7c-0.3,0.2-0.6,0.4-0.9,0.6c-0.3,0.2-0.2,0.4-0.2,0.7c-0.1,0.4-0.3,0.3-0.3,0.7c0,0.3-0.1,0.4-0.3,0.6
	c0,0.8,0,1.5,0,2.3c-0.4,0.3-0.6,0.3-0.6,0.8c0,0.5,0,1,0,1.5c0.4,0.4,0.9,0.9,1.4,1c0.4,0.1,0.7-0.1,1.1,0.2
	c0.3,0.2,0.7,0.2,1.1,0.2c0.9,0,1.7,0,2.6,0c0.4,0,0.5,0,0.8,0.3c0.5,0,0.8-0.1,1.2,0.3c0.5,0,0.5-0.1,0.9,0.3
	c0.3,0,0.5-0.1,0.8,0.2c0.3,0.3,0.6,0.2,1,0.2c0.5,0,0.5,0.3,1.1,0.3c0.9,0,1.8,0,2.7,0c0.9,0,1.5-0.3,2.4-0.3c0.5,0,0.5-0.3,1-0.3
	c0.4,0,0.8,0,1.1,0c0.4,0,0.4-0.1,0.6-0.3c0.4,0,0.6,0.1,0.9-0.3c0.4-0.5,0.8-1.5,0.2-2c-0.5-0.5-1.3-1-2-1.1
	c-0.3,0-1.1-0.3-1.4-0.5c-0.5-0.3-1.1-0.4-1.7-0.7c-0.3-0.2-0.6-0.3-0.8-0.6c-0.2-0.3-0.2-0.5-0.4-0.7c-0.4-0.6-1.1-1.1-1.6-1.6
	c-0.4-0.4-0.5-0.4-0.2-0.9c0.2-0.5,0-0.5-0.3-0.8c-0.5-0.2-1.1-0.1-0.6-0.9c0.3-0.5,0.2-1.5-0.2-1.9c-0.3-0.3-0.6-0.6-0.9-0.9
	c-0.4-0.4-0.3-0.4,0-0.9c0-4.1,2.1-8.5,3.7-12.1c1.9-4.3,4.1-8.6,6.9-12.4c0.4-0.6,0.9-1.2,1.4-1.7c0.2-0.2,0.1-0.7,0.1-1
	c0.2-0.3,0.3-0.3,0.3-0.6c0-0.5,0.3-0.6,0.6-1c0-0.4,0-0.6,0.3-0.9c0.2-0.2,0.4-0.2,0.6,0c0.3,0.3,0.7,0.2,1.1,0.2
	c3.6,0,1.3,4.8,0.7,6.4c-0.7,1.9-0.9,4.8-0.8,6.9c0.1,2.3,1.1,4.2,1,6.6c0,2,0,4.1,0,6.1c0,0.8,0,1-0.2,1.7c-0.2,0.6-0.9,1-0.9,1.8
	c0,0.5,0,1.1,0,1.6c0,0.5,0.1,0.7-0.3,1.1c-0.4,0.3-0.3,0.5-0.3,1c0,0.4,0,0.7,0,1.1c0.3,0.1,0.6,0.3,0.9,0.4c0.6,0,0.9,0.3,1.6,0.3
	c0.4,0,0.5,0.1,0.9,0.3c0.5-0.3,0.7-0.3,1.3-0.3c0.9,0,1.4,0.3,2.2,0.3c0.8,0,1.8,0.2,2.5-0.1c0.5-0.5,1.8-0.2,2.5-0.2
	c0.5,0,0.9,0,1.4,0c0.5-0.5,1-0.1,1.4-0.5c0.5-0.4,1.1,0.1,1.6-0.4c0.7,0,1.2,0,1.8-0.4c0.1-0.1,0.5-1.1,0.5-1.3
	c-0.1-0.8-0.7-1.2-1.4-1.4c-1-0.2-2.2-0.4-3.2-0.9c-0.5-0.3-0.1,0.2-0.6-0.3c-0.3-0.3-0.5-0.6-0.8-0.9c-0.4-0.1-0.4-0.1-0.4-0.5
	c0-0.6,0.4-0.6-0.2-1.1c-0.5-0.4-1.1-0.5-1.6-0.9c-0.4-0.3-1.3,0.3-1.7-0.1c-0.2-0.2,0-0.6-0.1-0.9c-0.3-0.7-0.7-1.8-0.7-2.5
	c-0.1-1.2,0.1-2.5,0-3.8c-0.1-2.5,0-4.3,0.8-6.6c0.6-2.1,1.3-4.1,2.3-6.1c0.7-1.5,1.7-2.9,2-4.5c0.2-1,0-1.2,0.7-1.8
	c0.6-0.5,2-0.9,2.7-1.3c1-0.5,1.9-1.1,2.8-1.8c1.1-0.8,2.3-1.4,3.1-2.6c0.7-1.1,1.5-2.1,2-3.3c0.2-0.4,0.4-1.4,0.8-1.7
	c0.2-0.2,0.4-1.2,0.5-1.5c0.5-1.5,0.5-2.9,0.5-4.5c0-0.4,0-0.9,0-1.3c0-0.6-0.3-0.6-0.3-1.1c0-0.4,0-0.8,0-1.3
	c0-0.6-0.4-0.6-0.3-1.2c0.6-0.1,0.7,0.7,1.3,0.6c0.7,0.7,1.3,1.3,2,2c0.3,0.3,0.7,0.7,1,1c0.4,0.4,0.3,0.6,0.3,1.2
	c0,0.3-0.1,0.8,0.1,1c0.2,0.2,0.5,0.4,0.5,0.7c-0.5,0.5-0.3,1.2-0.3,1.9c0,1.2,0.3,0.8,1.2,1.3c0.5,0.3,0.5,1.2,1.1,1.2
	c0.5,0,0.5,0.3,1,0.3c0.3,0,0.5,0,0.8,0c0.2-0.3,0.4-0.4,0.7-0.3c0.4,0,0.7,0.1,1-0.2c0.2-0.2,0.4-0.1,0.6,0
	c0.7,0.4,0.9-0.1,1.2-0.7c0.5-1,1.4-0.1,2-0.1c0.7,0,1.3,0,1.9,0.3c0.5,0.2,1.1,0.4,1.2,1.1c0,0.3-0.1,0.7,0.1,1c0,0,0.6,0,0.6,0
	c0.2,0.1,0.4,0.1,0.5,0.1c2.7,0.5,5.4,1,8,1.4c4.4,0.8,8.8,1.6,13.2,2.4c1.5,0.3,3,0.6,4.5,0.9c0.3,0.1,0.7,0.1,1,0.3
	c0.6,0.2,1.2,0.1,2.1,1c0.4,0.4,4.2,0.8,6.3,0.9c1.1,0.1,1.9,0.2,3,0.3c0.6,0,0.3-0.8,0.8-0.9c0.4-0.1,0.6-0.9,0.6-1.3
	c0-0.2,0-0.5,0-0.7C113.5,71.4,114,71.6,113.5,71.1C113.5,70.9,114,71.6,113.5,71.1z M46.3,44.2c-0.5-0.3-1.3-0.8-1.9-0.7
	c-0.2-0.2-0.3-0.3-0.6-0.3c-0.4,0-0.5-0.3-0.9-0.3c-0.4,0-0.3,0-0.6-0.3c-0.3,0-0.6,0-0.8-0.2c-0.3-0.3-0.6-0.2-1-0.2
	c-0.5,0-0.5-0.1-0.9-0.5c0.3-0.3,0.8-1.1,1.3-1.1c0.3-0.3,0.6-0.5,0.8-0.8c0.4-0.3,0.2-0.5,0.6-0.9c0.4-0.4,0.7-0.8,1-1.2
	c0.4-0.6,0.8,0.5,0.9,0.6c0.6,0.9,1,2,1.7,2.9c0.2,0.3,0.5,0.3,0.5,0.7c0,0.4,0.2,0.6,0.4,1c0.2,0.3,0.5,1.2,0.5,1.6
	C46.8,44.8,46.7,44.4,46.3,44.2C46,44,46.6,44.3,46.3,44.2z"/>
</svg>
